<?xml version="1.0" encoding="utf-8" standalone="no"?>
<!DOCTYPE svg PUBLIC "-//W3C//DTD SVG 1.1//EN"
  "http://www.w3.org/Graphics/SVG/1.1/DTD/svg11.dtd">
<svg xmlns:xlink="http://www.w3.org/1999/xlink" width="699.739146pt" height="666.72pt" viewBox="0 0 699.739146 666.72" xmlns="http://www.w3.org/2000/svg" version="1.1">
 <metadata>
  <rdf:RDF xmlns:dc="http://purl.org/dc/elements/1.1/" xmlns:cc="http://creativecommons.org/ns#" xmlns:rdf="http://www.w3.org/1999/02/22-rdf-syntax-ns#">
   <cc:Work>
    <dc:type rdf:resource="http://purl.org/dc/dcmitype/StillImage"/>
    <dc:date>2022-04-11T16:22:12.099896</dc:date>
    <dc:format>image/svg+xml</dc:format>
    <dc:creator>
     <cc:Agent>
      <dc:title>Matplotlib v3.5.1, https://matplotlib.org/</dc:title>
     </cc:Agent>
    </dc:creator>
   </cc:Work>
  </rdf:RDF>
 </metadata>
 <defs>
  <style type="text/css">*{stroke-linejoin: round; stroke-linecap: butt}</style>
 </defs>
 <g id="figure_1">
  <g id="patch_1">
   <path d="M 0 666.72 
L 699.739146 666.72 
L 699.739146 0 
L 0 0 
L 0 666.72 
z
" style="fill: none"/>
  </g>
  <g id="patch_2">
   <path d="M 7.2 659.52 
L 659.52 659.52 
L 659.52 7.2 
L 7.2 7.2 
z
" style="fill: #ffffff"/>
  </g>
  <g id="pane3d_1">
   <g id="patch_3">
    <path d="M 48.744516 474.857495 
L 342.175135 393.379017 
L 342.175135 110.596813 
L 41.884409 170.71808 
" style="fill: #f2f2f2; opacity: 0.5; stroke: #f2f2f2; stroke-linejoin: miter"/>
   </g>
  </g>
  <g id="pane3d_2">
   <g id="patch_4">
    <path d="M 342.175135 393.379017 
L 635.605754 474.857495 
L 642.465861 170.71808 
L 342.175135 110.596813 
" style="fill: #e6e6e6; opacity: 0.5; stroke: #e6e6e6; stroke-linejoin: miter"/>
   </g>
  </g>
  <g id="pane3d_3">
   <g id="patch_5">
    <path d="M 48.744516 474.857495 
L 342.175135 570.579771 
L 635.605754 474.857495 
L 342.175135 393.379017 
" style="fill: #ececec; opacity: 0.5; stroke: #ececec; stroke-linejoin: miter"/>
   </g>
  </g>
  <g id="axis3d_1">
   <g id="line2d_1">
    <path d="M 48.744516 474.857495 
L 342.175135 570.579771 
" style="fill: none; stroke: #000000; stroke-width: 0.8; stroke-linecap: square"/>
   </g>
   <g id="text_1">
    <!-- Valence -->
    <g transform="translate(131.036216 544.385729)rotate(-341.932755)scale(0.18 -0.18)">
     <defs>
      <path id="DejaVuSans-56" d="M 1831 0 
L 50 4666 
L 709 4666 
L 2188 738 
L 3669 4666 
L 4325 4666 
L 2547 0 
L 1831 0 
z
" transform="scale(0.015625)"/>
      <path id="DejaVuSans-61" d="M 2194 1759 
Q 1497 1759 1228 1600 
Q 959 1441 959 1056 
Q 959 750 1161 570 
Q 1363 391 1709 391 
Q 2188 391 2477 730 
Q 2766 1069 2766 1631 
L 2766 1759 
L 2194 1759 
z
M 3341 1997 
L 3341 0 
L 2766 0 
L 2766 531 
Q 2569 213 2275 61 
Q 1981 -91 1556 -91 
Q 1019 -91 701 211 
Q 384 513 384 1019 
Q 384 1609 779 1909 
Q 1175 2209 1959 2209 
L 2766 2209 
L 2766 2266 
Q 2766 2663 2505 2880 
Q 2244 3097 1772 3097 
Q 1472 3097 1187 3025 
Q 903 2953 641 2809 
L 641 3341 
Q 956 3463 1253 3523 
Q 1550 3584 1831 3584 
Q 2591 3584 2966 3190 
Q 3341 2797 3341 1997 
z
" transform="scale(0.015625)"/>
      <path id="DejaVuSans-6c" d="M 603 4863 
L 1178 4863 
L 1178 0 
L 603 0 
L 603 4863 
z
" transform="scale(0.015625)"/>
      <path id="DejaVuSans-65" d="M 3597 1894 
L 3597 1613 
L 953 1613 
Q 991 1019 1311 708 
Q 1631 397 2203 397 
Q 2534 397 2845 478 
Q 3156 559 3463 722 
L 3463 178 
Q 3153 47 2828 -22 
Q 2503 -91 2169 -91 
Q 1331 -91 842 396 
Q 353 884 353 1716 
Q 353 2575 817 3079 
Q 1281 3584 2069 3584 
Q 2775 3584 3186 3129 
Q 3597 2675 3597 1894 
z
M 3022 2063 
Q 3016 2534 2758 2815 
Q 2500 3097 2075 3097 
Q 1594 3097 1305 2825 
Q 1016 2553 972 2059 
L 3022 2063 
z
" transform="scale(0.015625)"/>
      <path id="DejaVuSans-6e" d="M 3513 2113 
L 3513 0 
L 2938 0 
L 2938 2094 
Q 2938 2591 2744 2837 
Q 2550 3084 2163 3084 
Q 1697 3084 1428 2787 
Q 1159 2491 1159 1978 
L 1159 0 
L 581 0 
L 581 3500 
L 1159 3500 
L 1159 2956 
Q 1366 3272 1645 3428 
Q 1925 3584 2291 3584 
Q 2894 3584 3203 3211 
Q 3513 2838 3513 2113 
z
" transform="scale(0.015625)"/>
      <path id="DejaVuSans-63" d="M 3122 3366 
L 3122 2828 
Q 2878 2963 2633 3030 
Q 2388 3097 2138 3097 
Q 1578 3097 1268 2742 
Q 959 2388 959 1747 
Q 959 1106 1268 751 
Q 1578 397 2138 397 
Q 2388 397 2633 464 
Q 2878 531 3122 666 
L 3122 134 
Q 2881 22 2623 -34 
Q 2366 -91 2075 -91 
Q 1284 -91 818 406 
Q 353 903 353 1747 
Q 353 2603 823 3093 
Q 1294 3584 2113 3584 
Q 2378 3584 2631 3529 
Q 2884 3475 3122 3366 
z
" transform="scale(0.015625)"/>
     </defs>
     <use xlink:href="#DejaVuSans-56"/>
     <use xlink:href="#DejaVuSans-61" x="60.658203"/>
     <use xlink:href="#DejaVuSans-6c" x="121.9375"/>
     <use xlink:href="#DejaVuSans-65" x="149.720703"/>
     <use xlink:href="#DejaVuSans-6e" x="211.244141"/>
     <use xlink:href="#DejaVuSans-63" x="274.623047"/>
     <use xlink:href="#DejaVuSans-65" x="329.603516"/>
    </g>
   </g>
   <g id="Line3DCollection_1">
    <path d="M 66.004697 480.488072 
L 359.540922 398.20107 
L 359.91788 114.149091 
" style="fill: none; stroke: #b0b0b0; stroke-width: 0.8"/>
    <path d="M 114.270994 496.233395 
L 408.032111 411.665882 
L 409.480982 124.07213 
" style="fill: none; stroke: #b0b0b0; stroke-width: 0.8"/>
    <path d="M 163.938153 512.435704 
L 457.822661 425.491495 
L 460.401784 134.266994 
" style="fill: none; stroke: #b0b0b0; stroke-width: 0.8"/>
    <path d="M 215.06806 529.115187 
L 508.965506 439.692607 
L 512.73685 144.745008 
" style="fill: none; stroke: #b0b0b0; stroke-width: 0.8"/>
    <path d="M 267.726298 546.293239 
L 561.516495 454.284727 
L 566.545929 155.518135 
" style="fill: none; stroke: #b0b0b0; stroke-width: 0.8"/>
    <path d="M 321.982433 563.992553 
L 615.534599 469.284228 
L 621.892182 166.599019 
" style="fill: none; stroke: #b0b0b0; stroke-width: 0.8"/>
   </g>
   <g id="xtick_1">
    <g id="line2d_2">
     <path d="M 68.541079 479.777048 
L 60.922084 481.912881 
" style="fill: none; stroke: #000000; stroke-width: 0.8; stroke-linecap: square"/>
    </g>
    <g id="text_2">
     <!-- 0.0 -->
     <g transform="translate(47.508643 501.229364)scale(0.1 -0.1)">
      <defs>
       <path id="DejaVuSans-30" d="M 2034 4250 
Q 1547 4250 1301 3770 
Q 1056 3291 1056 2328 
Q 1056 1369 1301 889 
Q 1547 409 2034 409 
Q 2525 409 2770 889 
Q 3016 1369 3016 2328 
Q 3016 3291 2770 3770 
Q 2525 4250 2034 4250 
z
M 2034 4750 
Q 2819 4750 3233 4129 
Q 3647 3509 3647 2328 
Q 3647 1150 3233 529 
Q 2819 -91 2034 -91 
Q 1250 -91 836 529 
Q 422 1150 422 2328 
Q 422 3509 836 4129 
Q 1250 4750 2034 4750 
z
" transform="scale(0.015625)"/>
       <path id="DejaVuSans-2e" d="M 684 794 
L 1344 794 
L 1344 0 
L 684 0 
L 684 794 
z
" transform="scale(0.015625)"/>
      </defs>
      <use xlink:href="#DejaVuSans-30"/>
      <use xlink:href="#DejaVuSans-2e" x="63.623047"/>
      <use xlink:href="#DejaVuSans-30" x="95.410156"/>
     </g>
    </g>
   </g>
   <g id="xtick_2">
    <g id="line2d_3">
     <path d="M 116.81201 495.501891 
L 109.178954 497.699284 
" style="fill: none; stroke: #000000; stroke-width: 0.8; stroke-linecap: square"/>
    </g>
    <g id="text_3">
     <!-- 0.2 -->
     <g transform="translate(95.719836 517.194385)scale(0.1 -0.1)">
      <defs>
       <path id="DejaVuSans-32" d="M 1228 531 
L 3431 531 
L 3431 0 
L 469 0 
L 469 531 
Q 828 903 1448 1529 
Q 2069 2156 2228 2338 
Q 2531 2678 2651 2914 
Q 2772 3150 2772 3378 
Q 2772 3750 2511 3984 
Q 2250 4219 1831 4219 
Q 1534 4219 1204 4116 
Q 875 4013 500 3803 
L 500 4441 
Q 881 4594 1212 4672 
Q 1544 4750 1819 4750 
Q 2544 4750 2975 4387 
Q 3406 4025 3406 3419 
Q 3406 3131 3298 2873 
Q 3191 2616 2906 2266 
Q 2828 2175 2409 1742 
Q 1991 1309 1228 531 
z
" transform="scale(0.015625)"/>
      </defs>
      <use xlink:href="#DejaVuSans-30"/>
      <use xlink:href="#DejaVuSans-2e" x="63.623047"/>
      <use xlink:href="#DejaVuSans-32" x="95.410156"/>
     </g>
    </g>
   </g>
   <g id="xtick_3">
    <g id="line2d_4">
     <path d="M 166.483007 511.682822 
L 158.838278 513.944476 
" style="fill: none; stroke: #000000; stroke-width: 0.8; stroke-linecap: square"/>
    </g>
    <g id="text_4">
     <!-- 0.4 -->
     <g transform="translate(145.333116 533.623703)scale(0.1 -0.1)">
      <defs>
       <path id="DejaVuSans-34" d="M 2419 4116 
L 825 1625 
L 2419 1625 
L 2419 4116 
z
M 2253 4666 
L 3047 4666 
L 3047 1625 
L 3713 1625 
L 3713 1100 
L 3047 1100 
L 3047 0 
L 2419 0 
L 2419 1100 
L 313 1100 
L 313 1709 
L 2253 4666 
z
" transform="scale(0.015625)"/>
      </defs>
      <use xlink:href="#DejaVuSans-30"/>
      <use xlink:href="#DejaVuSans-2e" x="63.623047"/>
      <use xlink:href="#DejaVuSans-34" x="95.410156"/>
     </g>
    </g>
   </g>
   <g id="xtick_4">
    <g id="line2d_5">
     <path d="M 217.615876 528.339976 
L 209.962095 530.668751 
" style="fill: none; stroke: #000000; stroke-width: 0.8; stroke-linecap: square"/>
    </g>
    <g id="text_5">
     <!-- 0.6 -->
     <g transform="translate(196.410549 550.537872)scale(0.1 -0.1)">
      <defs>
       <path id="DejaVuSans-36" d="M 2113 2584 
Q 1688 2584 1439 2293 
Q 1191 2003 1191 1497 
Q 1191 994 1439 701 
Q 1688 409 2113 409 
Q 2538 409 2786 701 
Q 3034 994 3034 1497 
Q 3034 2003 2786 2293 
Q 2538 2584 2113 2584 
z
M 3366 4563 
L 3366 3988 
Q 3128 4100 2886 4159 
Q 2644 4219 2406 4219 
Q 1781 4219 1451 3797 
Q 1122 3375 1075 2522 
Q 1259 2794 1537 2939 
Q 1816 3084 2150 3084 
Q 2853 3084 3261 2657 
Q 3669 2231 3669 1497 
Q 3669 778 3244 343 
Q 2819 -91 2113 -91 
Q 1303 -91 875 529 
Q 447 1150 447 2328 
Q 447 3434 972 4092 
Q 1497 4750 2381 4750 
Q 2619 4750 2861 4703 
Q 3103 4656 3366 4563 
z
" transform="scale(0.015625)"/>
      </defs>
      <use xlink:href="#DejaVuSans-30"/>
      <use xlink:href="#DejaVuSans-2e" x="63.623047"/>
      <use xlink:href="#DejaVuSans-36" x="95.410156"/>
     </g>
    </g>
   </g>
   <g id="xtick_5">
    <g id="line2d_6">
     <path d="M 270.276121 545.494691 
L 262.616158 547.89362 
" style="fill: none; stroke: #000000; stroke-width: 0.8; stroke-linecap: square"/>
    </g>
    <g id="text_6">
     <!-- 0.8 -->
     <g transform="translate(249.017919 567.958677)scale(0.1 -0.1)">
      <defs>
       <path id="DejaVuSans-38" d="M 2034 2216 
Q 1584 2216 1326 1975 
Q 1069 1734 1069 1313 
Q 1069 891 1326 650 
Q 1584 409 2034 409 
Q 2484 409 2743 651 
Q 3003 894 3003 1313 
Q 3003 1734 2745 1975 
Q 2488 2216 2034 2216 
z
M 1403 2484 
Q 997 2584 770 2862 
Q 544 3141 544 3541 
Q 544 4100 942 4425 
Q 1341 4750 2034 4750 
Q 2731 4750 3128 4425 
Q 3525 4100 3525 3541 
Q 3525 3141 3298 2862 
Q 3072 2584 2669 2484 
Q 3125 2378 3379 2068 
Q 3634 1759 3634 1313 
Q 3634 634 3220 271 
Q 2806 -91 2034 -91 
Q 1263 -91 848 271 
Q 434 634 434 1313 
Q 434 1759 690 2068 
Q 947 2378 1403 2484 
z
M 1172 3481 
Q 1172 3119 1398 2916 
Q 1625 2713 2034 2713 
Q 2441 2713 2670 2916 
Q 2900 3119 2900 3481 
Q 2900 3844 2670 4047 
Q 2441 4250 2034 4250 
Q 1625 4250 1398 4047 
Q 1172 3844 1172 3481 
z
" transform="scale(0.015625)"/>
      </defs>
      <use xlink:href="#DejaVuSans-30"/>
      <use xlink:href="#DejaVuSans-2e" x="63.623047"/>
      <use xlink:href="#DejaVuSans-38" x="95.410156"/>
     </g>
    </g>
   </g>
   <g id="xtick_6">
    <g id="line2d_7">
     <path d="M 324.533212 563.169598 
L 316.870216 565.6419 
" style="fill: none; stroke: #000000; stroke-width: 0.8; stroke-linecap: square"/>
    </g>
    <g id="text_7">
     <!-- 1.0 -->
     <g transform="translate(303.225012 585.909225)scale(0.1 -0.1)">
      <defs>
       <path id="DejaVuSans-31" d="M 794 531 
L 1825 531 
L 1825 4091 
L 703 3866 
L 703 4441 
L 1819 4666 
L 2450 4666 
L 2450 531 
L 3481 531 
L 3481 0 
L 794 0 
L 794 531 
z
" transform="scale(0.015625)"/>
      </defs>
      <use xlink:href="#DejaVuSans-31"/>
      <use xlink:href="#DejaVuSans-2e" x="63.623047"/>
      <use xlink:href="#DejaVuSans-30" x="95.410156"/>
     </g>
    </g>
   </g>
  </g>
  <g id="axis3d_2">
   <g id="line2d_8">
    <path d="M 635.605754 474.857495 
L 342.175135 570.579771 
" style="fill: none; stroke: #000000; stroke-width: 0.8; stroke-linecap: square"/>
   </g>
   <g id="text_8">
    <!-- Arousal -->
    <g transform="translate(487.933695 565.713962)rotate(-18.067245)scale(0.18 -0.18)">
     <defs>
      <path id="DejaVuSans-41" d="M 2188 4044 
L 1331 1722 
L 3047 1722 
L 2188 4044 
z
M 1831 4666 
L 2547 4666 
L 4325 0 
L 3669 0 
L 3244 1197 
L 1141 1197 
L 716 0 
L 50 0 
L 1831 4666 
z
" transform="scale(0.015625)"/>
      <path id="DejaVuSans-72" d="M 2631 2963 
Q 2534 3019 2420 3045 
Q 2306 3072 2169 3072 
Q 1681 3072 1420 2755 
Q 1159 2438 1159 1844 
L 1159 0 
L 581 0 
L 581 3500 
L 1159 3500 
L 1159 2956 
Q 1341 3275 1631 3429 
Q 1922 3584 2338 3584 
Q 2397 3584 2469 3576 
Q 2541 3569 2628 3553 
L 2631 2963 
z
" transform="scale(0.015625)"/>
      <path id="DejaVuSans-6f" d="M 1959 3097 
Q 1497 3097 1228 2736 
Q 959 2375 959 1747 
Q 959 1119 1226 758 
Q 1494 397 1959 397 
Q 2419 397 2687 759 
Q 2956 1122 2956 1747 
Q 2956 2369 2687 2733 
Q 2419 3097 1959 3097 
z
M 1959 3584 
Q 2709 3584 3137 3096 
Q 3566 2609 3566 1747 
Q 3566 888 3137 398 
Q 2709 -91 1959 -91 
Q 1206 -91 779 398 
Q 353 888 353 1747 
Q 353 2609 779 3096 
Q 1206 3584 1959 3584 
z
" transform="scale(0.015625)"/>
      <path id="DejaVuSans-75" d="M 544 1381 
L 544 3500 
L 1119 3500 
L 1119 1403 
Q 1119 906 1312 657 
Q 1506 409 1894 409 
Q 2359 409 2629 706 
Q 2900 1003 2900 1516 
L 2900 3500 
L 3475 3500 
L 3475 0 
L 2900 0 
L 2900 538 
Q 2691 219 2414 64 
Q 2138 -91 1772 -91 
Q 1169 -91 856 284 
Q 544 659 544 1381 
z
M 1991 3584 
L 1991 3584 
z
" transform="scale(0.015625)"/>
      <path id="DejaVuSans-73" d="M 2834 3397 
L 2834 2853 
Q 2591 2978 2328 3040 
Q 2066 3103 1784 3103 
Q 1356 3103 1142 2972 
Q 928 2841 928 2578 
Q 928 2378 1081 2264 
Q 1234 2150 1697 2047 
L 1894 2003 
Q 2506 1872 2764 1633 
Q 3022 1394 3022 966 
Q 3022 478 2636 193 
Q 2250 -91 1575 -91 
Q 1294 -91 989 -36 
Q 684 19 347 128 
L 347 722 
Q 666 556 975 473 
Q 1284 391 1588 391 
Q 1994 391 2212 530 
Q 2431 669 2431 922 
Q 2431 1156 2273 1281 
Q 2116 1406 1581 1522 
L 1381 1569 
Q 847 1681 609 1914 
Q 372 2147 372 2553 
Q 372 3047 722 3315 
Q 1072 3584 1716 3584 
Q 2034 3584 2315 3537 
Q 2597 3491 2834 3397 
z
" transform="scale(0.015625)"/>
     </defs>
     <use xlink:href="#DejaVuSans-41"/>
     <use xlink:href="#DejaVuSans-72" x="68.408203"/>
     <use xlink:href="#DejaVuSans-6f" x="107.271484"/>
     <use xlink:href="#DejaVuSans-75" x="168.453125"/>
     <use xlink:href="#DejaVuSans-73" x="231.832031"/>
     <use xlink:href="#DejaVuSans-61" x="283.931641"/>
     <use xlink:href="#DejaVuSans-6c" x="345.210938"/>
    </g>
   </g>
   <g id="Line3DCollection_2">
    <path d="M 62.458089 166.599019 
L 68.815671 469.284228 
L 362.367837 563.992553 
" style="fill: none; stroke: #b0b0b0; stroke-width: 0.8"/>
    <path d="M 117.804342 155.518135 
L 122.833775 454.284727 
L 416.623973 546.293239 
" style="fill: none; stroke: #b0b0b0; stroke-width: 0.8"/>
    <path d="M 171.61342 144.745008 
L 175.384765 439.692607 
L 469.282211 529.115187 
" style="fill: none; stroke: #b0b0b0; stroke-width: 0.8"/>
    <path d="M 223.948486 134.266994 
L 226.527609 425.491495 
L 520.412117 512.435704 
" style="fill: none; stroke: #b0b0b0; stroke-width: 0.8"/>
    <path d="M 274.869289 124.07213 
L 276.318159 411.665882 
L 570.079276 496.233395 
" style="fill: none; stroke: #b0b0b0; stroke-width: 0.8"/>
    <path d="M 324.43239 114.149091 
L 324.809349 398.20107 
L 618.345573 480.488072 
" style="fill: none; stroke: #b0b0b0; stroke-width: 0.8"/>
   </g>
   <g id="xtick_7">
    <g id="line2d_9">
     <path d="M 359.817058 563.169598 
L 367.480054 565.6419 
" style="fill: none; stroke: #000000; stroke-width: 0.8; stroke-linecap: square"/>
    </g>
    <g id="text_9">
     <!-- 0.0 -->
     <g transform="translate(365.222133 585.909225)scale(0.1 -0.1)">
      <use xlink:href="#DejaVuSans-30"/>
      <use xlink:href="#DejaVuSans-2e" x="63.623047"/>
      <use xlink:href="#DejaVuSans-30" x="95.410156"/>
     </g>
    </g>
   </g>
   <g id="xtick_8">
    <g id="line2d_10">
     <path d="M 414.07415 545.494691 
L 421.734112 547.89362 
" style="fill: none; stroke: #000000; stroke-width: 0.8; stroke-linecap: square"/>
    </g>
    <g id="text_10">
     <!-- 0.2 -->
     <g transform="translate(419.429226 567.958677)scale(0.1 -0.1)">
      <use xlink:href="#DejaVuSans-30"/>
      <use xlink:href="#DejaVuSans-2e" x="63.623047"/>
      <use xlink:href="#DejaVuSans-32" x="95.410156"/>
     </g>
    </g>
   </g>
   <g id="xtick_9">
    <g id="line2d_11">
     <path d="M 466.734394 528.339976 
L 474.388176 530.668751 
" style="fill: none; stroke: #000000; stroke-width: 0.8; stroke-linecap: square"/>
    </g>
    <g id="text_11">
     <!-- 0.4 -->
     <g transform="translate(472.036596 550.537872)scale(0.1 -0.1)">
      <use xlink:href="#DejaVuSans-30"/>
      <use xlink:href="#DejaVuSans-2e" x="63.623047"/>
      <use xlink:href="#DejaVuSans-34" x="95.410156"/>
     </g>
    </g>
   </g>
   <g id="xtick_10">
    <g id="line2d_12">
     <path d="M 517.867264 511.682822 
L 525.511993 513.944476 
" style="fill: none; stroke: #000000; stroke-width: 0.8; stroke-linecap: square"/>
    </g>
    <g id="text_12">
     <!-- 0.6 -->
     <g transform="translate(523.114029 533.623703)scale(0.1 -0.1)">
      <use xlink:href="#DejaVuSans-30"/>
      <use xlink:href="#DejaVuSans-2e" x="63.623047"/>
      <use xlink:href="#DejaVuSans-36" x="95.410156"/>
     </g>
    </g>
   </g>
   <g id="xtick_11">
    <g id="line2d_13">
     <path d="M 567.53826 495.501891 
L 575.171316 497.699284 
" style="fill: none; stroke: #000000; stroke-width: 0.8; stroke-linecap: square"/>
    </g>
    <g id="text_13">
     <!-- 0.8 -->
     <g transform="translate(572.727309 517.194385)scale(0.1 -0.1)">
      <use xlink:href="#DejaVuSans-30"/>
      <use xlink:href="#DejaVuSans-2e" x="63.623047"/>
      <use xlink:href="#DejaVuSans-38" x="95.410156"/>
     </g>
    </g>
   </g>
   <g id="xtick_12">
    <g id="line2d_14">
     <path d="M 615.809192 479.777048 
L 623.428186 481.912881 
" style="fill: none; stroke: #000000; stroke-width: 0.8; stroke-linecap: square"/>
    </g>
    <g id="text_14">
     <!-- 1.0 -->
     <g transform="translate(620.938502 501.229364)scale(0.1 -0.1)">
      <use xlink:href="#DejaVuSans-31"/>
      <use xlink:href="#DejaVuSans-2e" x="63.623047"/>
      <use xlink:href="#DejaVuSans-30" x="95.410156"/>
     </g>
    </g>
   </g>
  </g>
  <g id="axis3d_3">
   <g id="line2d_15">
    <path d="M 635.605754 474.857495 
L 642.465861 170.71808 
" style="fill: none; stroke: #000000; stroke-width: 0.8; stroke-linecap: square"/>
   </g>
   <g id="text_15">
    <!-- Dominance -->
    <g transform="translate(686.491459 375.75684)rotate(-88.707867)scale(0.18 -0.18)">
     <defs>
      <path id="DejaVuSans-44" d="M 1259 4147 
L 1259 519 
L 2022 519 
Q 2988 519 3436 956 
Q 3884 1394 3884 2338 
Q 3884 3275 3436 3711 
Q 2988 4147 2022 4147 
L 1259 4147 
z
M 628 4666 
L 1925 4666 
Q 3281 4666 3915 4102 
Q 4550 3538 4550 2338 
Q 4550 1131 3912 565 
Q 3275 0 1925 0 
L 628 0 
L 628 4666 
z
" transform="scale(0.015625)"/>
      <path id="DejaVuSans-6d" d="M 3328 2828 
Q 3544 3216 3844 3400 
Q 4144 3584 4550 3584 
Q 5097 3584 5394 3201 
Q 5691 2819 5691 2113 
L 5691 0 
L 5113 0 
L 5113 2094 
Q 5113 2597 4934 2840 
Q 4756 3084 4391 3084 
Q 3944 3084 3684 2787 
Q 3425 2491 3425 1978 
L 3425 0 
L 2847 0 
L 2847 2094 
Q 2847 2600 2669 2842 
Q 2491 3084 2119 3084 
Q 1678 3084 1418 2786 
Q 1159 2488 1159 1978 
L 1159 0 
L 581 0 
L 581 3500 
L 1159 3500 
L 1159 2956 
Q 1356 3278 1631 3431 
Q 1906 3584 2284 3584 
Q 2666 3584 2933 3390 
Q 3200 3197 3328 2828 
z
" transform="scale(0.015625)"/>
      <path id="DejaVuSans-69" d="M 603 3500 
L 1178 3500 
L 1178 0 
L 603 0 
L 603 3500 
z
M 603 4863 
L 1178 4863 
L 1178 4134 
L 603 4134 
L 603 4863 
z
" transform="scale(0.015625)"/>
     </defs>
     <use xlink:href="#DejaVuSans-44"/>
     <use xlink:href="#DejaVuSans-6f" x="77.001953"/>
     <use xlink:href="#DejaVuSans-6d" x="138.183594"/>
     <use xlink:href="#DejaVuSans-69" x="235.595703"/>
     <use xlink:href="#DejaVuSans-6e" x="263.378906"/>
     <use xlink:href="#DejaVuSans-61" x="326.757812"/>
     <use xlink:href="#DejaVuSans-6e" x="388.037109"/>
     <use xlink:href="#DejaVuSans-63" x="451.416016"/>
     <use xlink:href="#DejaVuSans-65" x="506.396484"/>
    </g>
   </g>
   <g id="Line3DCollection_3">
    <path d="M 636.032955 455.917782 
L 342.175135 375.740564 
L 48.317316 455.917782 
" style="fill: none; stroke: #b0b0b0; stroke-width: 0.8"/>
    <path d="M 637.211115 403.684642 
L 342.175135 327.115914 
L 47.139156 403.684642 
" style="fill: none; stroke: #b0b0b0; stroke-width: 0.8"/>
    <path d="M 638.39876 351.030981 
L 342.175135 278.129177 
L 45.95151 351.030981 
" style="fill: none; stroke: #b0b0b0; stroke-width: 0.8"/>
    <path d="M 639.596005 297.9517 
L 342.175135 228.776293 
L 44.754265 297.9517 
" style="fill: none; stroke: #b0b0b0; stroke-width: 0.8"/>
    <path d="M 640.802968 244.441617 
L 342.175135 179.053141 
L 43.547302 244.441617 
" style="fill: none; stroke: #b0b0b0; stroke-width: 0.8"/>
    <path d="M 642.019766 190.495467 
L 342.175135 128.955539 
L 42.330504 190.495467 
" style="fill: none; stroke: #b0b0b0; stroke-width: 0.8"/>
   </g>
   <g id="xtick_13">
    <g id="line2d_16">
     <path d="M 633.494484 455.225177 
L 641.119717 457.305672 
" style="fill: none; stroke: #000000; stroke-width: 0.8; stroke-linecap: square"/>
    </g>
    <g id="text_16">
     <!-- 0.0 -->
     <g transform="translate(647.974637 463.516219)scale(0.1 -0.1)">
      <use xlink:href="#DejaVuSans-30"/>
      <use xlink:href="#DejaVuSans-2e" x="63.623047"/>
      <use xlink:href="#DejaVuSans-30" x="95.410156"/>
     </g>
    </g>
   </g>
   <g id="xtick_14">
    <g id="line2d_17">
     <path d="M 634.661712 403.023013 
L 642.319823 405.010471 
" style="fill: none; stroke: #000000; stroke-width: 0.8; stroke-linecap: square"/>
    </g>
    <g id="text_17">
     <!-- 0.2 -->
     <g transform="translate(649.232554 411.28308)scale(0.1 -0.1)">
      <use xlink:href="#DejaVuSans-30"/>
      <use xlink:href="#DejaVuSans-2e" x="63.623047"/>
      <use xlink:href="#DejaVuSans-32" x="95.410156"/>
     </g>
    </g>
   </g>
   <g id="xtick_15">
    <g id="line2d_18">
     <path d="M 635.838331 350.400849 
L 643.529604 352.293702 
" style="fill: none; stroke: #000000; stroke-width: 0.8; stroke-linecap: square"/>
    </g>
    <g id="text_18">
     <!-- 0.4 -->
     <g transform="translate(650.5006 358.629419)scale(0.1 -0.1)">
      <use xlink:href="#DejaVuSans-30"/>
      <use xlink:href="#DejaVuSans-2e" x="63.623047"/>
      <use xlink:href="#DejaVuSans-34" x="95.410156"/>
     </g>
    </g>
   </g>
   <g id="xtick_16">
    <g id="line2d_19">
     <path d="M 637.024455 297.353598 
L 644.749177 299.150246 
" style="fill: none; stroke: #000000; stroke-width: 0.8; stroke-linecap: square"/>
    </g>
    <g id="text_19">
     <!-- 0.6 -->
     <g transform="translate(651.778895 305.550137)scale(0.1 -0.1)">
      <use xlink:href="#DejaVuSans-30"/>
      <use xlink:href="#DejaVuSans-2e" x="63.623047"/>
      <use xlink:href="#DejaVuSans-36" x="95.410156"/>
     </g>
    </g>
   </g>
   <g id="xtick_17">
    <g id="line2d_20">
     <path d="M 638.220199 243.876086 
L 645.97866 245.574903 
" style="fill: none; stroke: #000000; stroke-width: 0.8; stroke-linecap: square"/>
    </g>
    <g id="text_20">
     <!-- 0.8 -->
     <g transform="translate(653.067565 252.040055)scale(0.1 -0.1)">
      <use xlink:href="#DejaVuSans-30"/>
      <use xlink:href="#DejaVuSans-2e" x="63.623047"/>
      <use xlink:href="#DejaVuSans-38" x="95.410156"/>
     </g>
    </g>
   </g>
   <g id="xtick_18">
    <g id="line2d_21">
     <path d="M 639.425682 189.963058 
L 647.218177 191.562385 
" style="fill: none; stroke: #000000; stroke-width: 0.8; stroke-linecap: square"/>
    </g>
    <g id="text_21">
     <!-- 1.0 -->
     <g transform="translate(654.366737 198.093904)scale(0.1 -0.1)">
      <use xlink:href="#DejaVuSans-31"/>
      <use xlink:href="#DejaVuSans-2e" x="63.623047"/>
      <use xlink:href="#DejaVuSans-30" x="95.410156"/>
     </g>
    </g>
   </g>
  </g>
  <g id="axes_1">
   <g id="Path3DCollection_1">
    <path d="M 317.350397 331.398881 
L 324.421465 324.327813 
M 317.350397 324.327813 
L 324.421465 331.398881 
" clip-path="url(#pf333cf0b7e)" style="fill: #dc143c; fill-opacity: 0.3; stroke: #dc143c; stroke-opacity: 0.3; stroke-width: 1.5"/>
    <path d="M 357.726757 345.385723 
L 364.797825 338.314655 
M 357.726757 338.314655 
L 364.797825 345.385723 
" clip-path="url(#pf333cf0b7e)" style="fill: #dc143c; fill-opacity: 0.300303; stroke: #dc143c; stroke-opacity: 0.300303; stroke-width: 1.5"/>
    <path d="M 296.161184 328.168994 
L 303.232252 321.097926 
M 296.161184 321.097926 
L 303.232252 328.168994 
" clip-path="url(#pf333cf0b7e)" style="fill: #dc143c; fill-opacity: 0.369817; stroke: #dc143c; stroke-opacity: 0.369817; stroke-width: 1.5"/>
    <path d="M 346.561692 243.535548 
L 353.63276 236.46448 
M 346.561692 236.46448 
L 353.63276 243.535548 
" clip-path="url(#pf333cf0b7e)" style="fill: #dc143c; fill-opacity: 0.538865; stroke: #dc143c; stroke-opacity: 0.538865; stroke-width: 1.5"/>
    <path d="M 295.961375 362.927244 
L 303.032443 355.856176 
M 295.961375 355.856176 
L 303.032443 362.927244 
" clip-path="url(#pf333cf0b7e)" style="fill: #dc143c; fill-opacity: 0.585928; stroke: #dc143c; stroke-opacity: 0.585928; stroke-width: 1.5"/>
    <path d="M 283.002252 322.737472 
L 290.073319 315.666404 
M 283.002252 315.666404 
L 290.073319 322.737472 
" clip-path="url(#pf333cf0b7e)" style="fill: #dc143c; fill-opacity: 0.606945; stroke: #dc143c; stroke-opacity: 0.606945; stroke-width: 1.5"/>
    <path d="M 310.058178 332.868338 
L 317.129246 325.79727 
M 310.058178 325.79727 
L 317.129246 332.868338 
" clip-path="url(#pf333cf0b7e)" style="fill: #dc143c; fill-opacity: 0.619722; stroke: #dc143c; stroke-opacity: 0.619722; stroke-width: 1.5"/>
    <path d="M 266.473739 297.997347 
L 273.544807 290.92628 
M 266.473739 290.92628 
L 273.544807 297.997347 
" clip-path="url(#pf333cf0b7e)" style="fill: #dc143c; fill-opacity: 0.645904; stroke: #dc143c; stroke-opacity: 0.645904; stroke-width: 1.5"/>
    <path d="M 247.602305 331.994842 
L 254.673373 324.923774 
M 247.602305 324.923774 
L 254.673373 331.994842 
" clip-path="url(#pf333cf0b7e)" style="fill: #dc143c; fill-opacity: 0.750624; stroke: #dc143c; stroke-opacity: 0.750624; stroke-width: 1.5"/>
    <path d="M 239.289683 345.929173 
L 246.360751 338.858105 
M 239.289683 338.858105 
L 246.360751 345.929173 
" clip-path="url(#pf333cf0b7e)" style="fill: #dc143c; fill-opacity: 0.868837; stroke: #dc143c; stroke-opacity: 0.868837; stroke-width: 1.5"/>
    <path d="M 171.600032 399.744703 
L 178.6711 392.673636 
M 171.600032 392.673636 
L 178.6711 399.744703 
" clip-path="url(#pf333cf0b7e)" style="fill: #dc143c; stroke: #dc143c; stroke-width: 1.5"/>
   </g>
   <g id="text_22">
    <!-- Admiration -->
    <g transform="translate(489.886611 287.239963)scale(0.1 -0.1)">
     <defs>
      <path id="DejaVuSans-64" d="M 2906 2969 
L 2906 4863 
L 3481 4863 
L 3481 0 
L 2906 0 
L 2906 525 
Q 2725 213 2448 61 
Q 2172 -91 1784 -91 
Q 1150 -91 751 415 
Q 353 922 353 1747 
Q 353 2572 751 3078 
Q 1150 3584 1784 3584 
Q 2172 3584 2448 3432 
Q 2725 3281 2906 2969 
z
M 947 1747 
Q 947 1113 1208 752 
Q 1469 391 1925 391 
Q 2381 391 2643 752 
Q 2906 1113 2906 1747 
Q 2906 2381 2643 2742 
Q 2381 3103 1925 3103 
Q 1469 3103 1208 2742 
Q 947 2381 947 1747 
z
" transform="scale(0.015625)"/>
      <path id="DejaVuSans-74" d="M 1172 4494 
L 1172 3500 
L 2356 3500 
L 2356 3053 
L 1172 3053 
L 1172 1153 
Q 1172 725 1289 603 
Q 1406 481 1766 481 
L 2356 481 
L 2356 0 
L 1766 0 
Q 1100 0 847 248 
Q 594 497 594 1153 
L 594 3053 
L 172 3053 
L 172 3500 
L 594 3500 
L 594 4494 
L 1172 4494 
z
" transform="scale(0.015625)"/>
     </defs>
     <use xlink:href="#DejaVuSans-41"/>
     <use xlink:href="#DejaVuSans-64" x="66.658203"/>
     <use xlink:href="#DejaVuSans-6d" x="130.134766"/>
     <use xlink:href="#DejaVuSans-69" x="227.546875"/>
     <use xlink:href="#DejaVuSans-72" x="255.330078"/>
     <use xlink:href="#DejaVuSans-61" x="296.443359"/>
     <use xlink:href="#DejaVuSans-74" x="357.722656"/>
     <use xlink:href="#DejaVuSans-69" x="396.931641"/>
     <use xlink:href="#DejaVuSans-6f" x="424.714844"/>
     <use xlink:href="#DejaVuSans-6e" x="485.896484"/>
    </g>
   </g>
   <g id="text_23">
    <!-- Approval -->
    <g transform="translate(426.535362 242.789574)scale(0.1 -0.1)">
     <defs>
      <path id="DejaVuSans-70" d="M 1159 525 
L 1159 -1331 
L 581 -1331 
L 581 3500 
L 1159 3500 
L 1159 2969 
Q 1341 3281 1617 3432 
Q 1894 3584 2278 3584 
Q 2916 3584 3314 3078 
Q 3713 2572 3713 1747 
Q 3713 922 3314 415 
Q 2916 -91 2278 -91 
Q 1894 -91 1617 61 
Q 1341 213 1159 525 
z
M 3116 1747 
Q 3116 2381 2855 2742 
Q 2594 3103 2138 3103 
Q 1681 3103 1420 2742 
Q 1159 2381 1159 1747 
Q 1159 1113 1420 752 
Q 1681 391 2138 391 
Q 2594 391 2855 752 
Q 3116 1113 3116 1747 
z
" transform="scale(0.015625)"/>
      <path id="DejaVuSans-76" d="M 191 3500 
L 800 3500 
L 1894 563 
L 2988 3500 
L 3597 3500 
L 2284 0 
L 1503 0 
L 191 3500 
z
" transform="scale(0.015625)"/>
     </defs>
     <use xlink:href="#DejaVuSans-41"/>
     <use xlink:href="#DejaVuSans-70" x="68.408203"/>
     <use xlink:href="#DejaVuSans-70" x="131.884766"/>
     <use xlink:href="#DejaVuSans-72" x="195.361328"/>
     <use xlink:href="#DejaVuSans-6f" x="234.224609"/>
     <use xlink:href="#DejaVuSans-76" x="295.40625"/>
     <use xlink:href="#DejaVuSans-61" x="354.585938"/>
     <use xlink:href="#DejaVuSans-6c" x="415.865234"/>
    </g>
   </g>
   <g id="text_24">
    <!-- Gratitude -->
    <g transform="translate(429.570906 323.05994)scale(0.1 -0.1)">
     <defs>
      <path id="DejaVuSans-47" d="M 3809 666 
L 3809 1919 
L 2778 1919 
L 2778 2438 
L 4434 2438 
L 4434 434 
Q 4069 175 3628 42 
Q 3188 -91 2688 -91 
Q 1594 -91 976 548 
Q 359 1188 359 2328 
Q 359 3472 976 4111 
Q 1594 4750 2688 4750 
Q 3144 4750 3555 4637 
Q 3966 4525 4313 4306 
L 4313 3634 
Q 3963 3931 3569 4081 
Q 3175 4231 2741 4231 
Q 1884 4231 1454 3753 
Q 1025 3275 1025 2328 
Q 1025 1384 1454 906 
Q 1884 428 2741 428 
Q 3075 428 3337 486 
Q 3600 544 3809 666 
z
" transform="scale(0.015625)"/>
     </defs>
     <use xlink:href="#DejaVuSans-47"/>
     <use xlink:href="#DejaVuSans-72" x="77.490234"/>
     <use xlink:href="#DejaVuSans-61" x="118.603516"/>
     <use xlink:href="#DejaVuSans-74" x="179.882812"/>
     <use xlink:href="#DejaVuSans-69" x="219.091797"/>
     <use xlink:href="#DejaVuSans-74" x="246.875"/>
     <use xlink:href="#DejaVuSans-75" x="286.083984"/>
     <use xlink:href="#DejaVuSans-64" x="349.462891"/>
     <use xlink:href="#DejaVuSans-65" x="412.939453"/>
    </g>
   </g>
   <g id="text_25">
    <!-- Amusement -->
    <g transform="translate(543.142801 247.268135)scale(0.1 -0.1)">
     <use xlink:href="#DejaVuSans-41"/>
     <use xlink:href="#DejaVuSans-6d" x="68.408203"/>
     <use xlink:href="#DejaVuSans-75" x="165.820312"/>
     <use xlink:href="#DejaVuSans-73" x="229.199219"/>
     <use xlink:href="#DejaVuSans-65" x="281.298828"/>
     <use xlink:href="#DejaVuSans-6d" x="342.822266"/>
     <use xlink:href="#DejaVuSans-65" x="440.234375"/>
     <use xlink:href="#DejaVuSans-6e" x="501.757812"/>
     <use xlink:href="#DejaVuSans-74" x="565.136719"/>
    </g>
   </g>
   <g id="text_26">
    <!-- Love -->
    <g transform="translate(481.874638 308.266476)scale(0.1 -0.1)">
     <defs>
      <path id="DejaVuSans-4c" d="M 628 4666 
L 1259 4666 
L 1259 531 
L 3531 531 
L 3531 0 
L 628 0 
L 628 4666 
z
" transform="scale(0.015625)"/>
     </defs>
     <use xlink:href="#DejaVuSans-4c"/>
     <use xlink:href="#DejaVuSans-6f" x="53.962891"/>
     <use xlink:href="#DejaVuSans-76" x="115.144531"/>
     <use xlink:href="#DejaVuSans-65" x="174.324219"/>
    </g>
   </g>
   <g id="text_27">
    <!-- Optimism -->
    <g transform="translate(479.950457 262.875349)scale(0.1 -0.1)">
     <defs>
      <path id="DejaVuSans-4f" d="M 2522 4238 
Q 1834 4238 1429 3725 
Q 1025 3213 1025 2328 
Q 1025 1447 1429 934 
Q 1834 422 2522 422 
Q 3209 422 3611 934 
Q 4013 1447 4013 2328 
Q 4013 3213 3611 3725 
Q 3209 4238 2522 4238 
z
M 2522 4750 
Q 3503 4750 4090 4092 
Q 4678 3434 4678 2328 
Q 4678 1225 4090 567 
Q 3503 -91 2522 -91 
Q 1538 -91 948 565 
Q 359 1222 359 2328 
Q 359 3434 948 4092 
Q 1538 4750 2522 4750 
z
" transform="scale(0.015625)"/>
     </defs>
     <use xlink:href="#DejaVuSans-4f"/>
     <use xlink:href="#DejaVuSans-70" x="78.710938"/>
     <use xlink:href="#DejaVuSans-74" x="142.1875"/>
     <use xlink:href="#DejaVuSans-69" x="181.396484"/>
     <use xlink:href="#DejaVuSans-6d" x="209.179688"/>
     <use xlink:href="#DejaVuSans-69" x="306.591797"/>
     <use xlink:href="#DejaVuSans-73" x="334.375"/>
     <use xlink:href="#DejaVuSans-6d" x="386.474609"/>
    </g>
   </g>
   <g id="text_28">
    <!-- Joy -->
    <g transform="translate(554.048085 253.729579)scale(0.1 -0.1)">
     <defs>
      <path id="DejaVuSans-4a" d="M 628 4666 
L 1259 4666 
L 1259 325 
Q 1259 -519 939 -900 
Q 619 -1281 -91 -1281 
L -331 -1281 
L -331 -750 
L -134 -750 
Q 284 -750 456 -515 
Q 628 -281 628 325 
L 628 4666 
z
" transform="scale(0.015625)"/>
      <path id="DejaVuSans-79" d="M 2059 -325 
Q 1816 -950 1584 -1140 
Q 1353 -1331 966 -1331 
L 506 -1331 
L 506 -850 
L 844 -850 
Q 1081 -850 1212 -737 
Q 1344 -625 1503 -206 
L 1606 56 
L 191 3500 
L 800 3500 
L 1894 763 
L 2988 3500 
L 3597 3500 
L 2059 -325 
z
" transform="scale(0.015625)"/>
     </defs>
     <use xlink:href="#DejaVuSans-4a"/>
     <use xlink:href="#DejaVuSans-6f" x="29.492188"/>
     <use xlink:href="#DejaVuSans-79" x="90.673828"/>
    </g>
   </g>
   <g id="text_29">
    <!-- Caring -->
    <g transform="translate(369.436828 333.727392)scale(0.1 -0.1)">
     <defs>
      <path id="DejaVuSans-43" d="M 4122 4306 
L 4122 3641 
Q 3803 3938 3442 4084 
Q 3081 4231 2675 4231 
Q 1875 4231 1450 3742 
Q 1025 3253 1025 2328 
Q 1025 1406 1450 917 
Q 1875 428 2675 428 
Q 3081 428 3442 575 
Q 3803 722 4122 1019 
L 4122 359 
Q 3791 134 3420 21 
Q 3050 -91 2638 -91 
Q 1578 -91 968 557 
Q 359 1206 359 2328 
Q 359 3453 968 4101 
Q 1578 4750 2638 4750 
Q 3056 4750 3426 4639 
Q 3797 4528 4122 4306 
z
" transform="scale(0.015625)"/>
      <path id="DejaVuSans-67" d="M 2906 1791 
Q 2906 2416 2648 2759 
Q 2391 3103 1925 3103 
Q 1463 3103 1205 2759 
Q 947 2416 947 1791 
Q 947 1169 1205 825 
Q 1463 481 1925 481 
Q 2391 481 2648 825 
Q 2906 1169 2906 1791 
z
M 3481 434 
Q 3481 -459 3084 -895 
Q 2688 -1331 1869 -1331 
Q 1566 -1331 1297 -1286 
Q 1028 -1241 775 -1147 
L 775 -588 
Q 1028 -725 1275 -790 
Q 1522 -856 1778 -856 
Q 2344 -856 2625 -561 
Q 2906 -266 2906 331 
L 2906 616 
Q 2728 306 2450 153 
Q 2172 0 1784 0 
Q 1141 0 747 490 
Q 353 981 353 1791 
Q 353 2603 747 3093 
Q 1141 3584 1784 3584 
Q 2172 3584 2450 3431 
Q 2728 3278 2906 2969 
L 2906 3500 
L 3481 3500 
L 3481 434 
z
" transform="scale(0.015625)"/>
     </defs>
     <use xlink:href="#DejaVuSans-43"/>
     <use xlink:href="#DejaVuSans-61" x="69.824219"/>
     <use xlink:href="#DejaVuSans-72" x="131.103516"/>
     <use xlink:href="#DejaVuSans-69" x="172.216797"/>
     <use xlink:href="#DejaVuSans-6e" x="200"/>
     <use xlink:href="#DejaVuSans-67" x="263.378906"/>
    </g>
   </g>
   <g id="text_30">
    <!-- Excitement -->
    <g transform="translate(495.440296 274.425993)scale(0.1 -0.1)">
     <defs>
      <path id="DejaVuSans-45" d="M 628 4666 
L 3578 4666 
L 3578 4134 
L 1259 4134 
L 1259 2753 
L 3481 2753 
L 3481 2222 
L 1259 2222 
L 1259 531 
L 3634 531 
L 3634 0 
L 628 0 
L 628 4666 
z
" transform="scale(0.015625)"/>
      <path id="DejaVuSans-78" d="M 3513 3500 
L 2247 1797 
L 3578 0 
L 2900 0 
L 1881 1375 
L 863 0 
L 184 0 
L 1544 1831 
L 300 3500 
L 978 3500 
L 1906 2253 
L 2834 3500 
L 3513 3500 
z
" transform="scale(0.015625)"/>
     </defs>
     <use xlink:href="#DejaVuSans-45"/>
     <use xlink:href="#DejaVuSans-78" x="63.183594"/>
     <use xlink:href="#DejaVuSans-63" x="120.613281"/>
     <use xlink:href="#DejaVuSans-69" x="175.59375"/>
     <use xlink:href="#DejaVuSans-74" x="203.376953"/>
     <use xlink:href="#DejaVuSans-65" x="242.585938"/>
     <use xlink:href="#DejaVuSans-6d" x="304.109375"/>
     <use xlink:href="#DejaVuSans-65" x="401.521484"/>
     <use xlink:href="#DejaVuSans-6e" x="463.044922"/>
     <use xlink:href="#DejaVuSans-74" x="526.423828"/>
    </g>
   </g>
   <g id="text_31">
    <!-- Desire -->
    <g transform="translate(497.196626 296.679616)scale(0.1 -0.1)">
     <use xlink:href="#DejaVuSans-44"/>
     <use xlink:href="#DejaVuSans-65" x="77.001953"/>
     <use xlink:href="#DejaVuSans-73" x="138.525391"/>
     <use xlink:href="#DejaVuSans-69" x="190.625"/>
     <use xlink:href="#DejaVuSans-72" x="218.408203"/>
     <use xlink:href="#DejaVuSans-65" x="257.271484"/>
    </g>
   </g>
   <g id="text_32">
    <!-- Relief -->
    <g transform="translate(375.087796 367.236497)scale(0.1 -0.1)">
     <defs>
      <path id="DejaVuSans-52" d="M 2841 2188 
Q 3044 2119 3236 1894 
Q 3428 1669 3622 1275 
L 4263 0 
L 3584 0 
L 2988 1197 
Q 2756 1666 2539 1819 
Q 2322 1972 1947 1972 
L 1259 1972 
L 1259 0 
L 628 0 
L 628 4666 
L 2053 4666 
Q 2853 4666 3247 4331 
Q 3641 3997 3641 3322 
Q 3641 2881 3436 2590 
Q 3231 2300 2841 2188 
z
M 1259 4147 
L 1259 2491 
L 2053 2491 
Q 2509 2491 2742 2702 
Q 2975 2913 2975 3322 
Q 2975 3731 2742 3939 
Q 2509 4147 2053 4147 
L 1259 4147 
z
" transform="scale(0.015625)"/>
      <path id="DejaVuSans-66" d="M 2375 4863 
L 2375 4384 
L 1825 4384 
Q 1516 4384 1395 4259 
Q 1275 4134 1275 3809 
L 1275 3500 
L 2222 3500 
L 2222 3053 
L 1275 3053 
L 1275 0 
L 697 0 
L 697 3053 
L 147 3053 
L 147 3500 
L 697 3500 
L 697 3744 
Q 697 4328 969 4595 
Q 1241 4863 1831 4863 
L 2375 4863 
z
" transform="scale(0.015625)"/>
     </defs>
     <use xlink:href="#DejaVuSans-52"/>
     <use xlink:href="#DejaVuSans-65" x="64.982422"/>
     <use xlink:href="#DejaVuSans-6c" x="126.505859"/>
     <use xlink:href="#DejaVuSans-69" x="154.289062"/>
     <use xlink:href="#DejaVuSans-65" x="182.072266"/>
     <use xlink:href="#DejaVuSans-66" x="243.595703"/>
    </g>
   </g>
   <g id="text_33">
    <!-- Pride -->
    <g transform="translate(437.519966 235.277236)scale(0.1 -0.1)">
     <defs>
      <path id="DejaVuSans-50" d="M 1259 4147 
L 1259 2394 
L 2053 2394 
Q 2494 2394 2734 2622 
Q 2975 2850 2975 3272 
Q 2975 3691 2734 3919 
Q 2494 4147 2053 4147 
L 1259 4147 
z
M 628 4666 
L 2053 4666 
Q 2838 4666 3239 4311 
Q 3641 3956 3641 3272 
Q 3641 2581 3239 2228 
Q 2838 1875 2053 1875 
L 1259 1875 
L 1259 0 
L 628 0 
L 628 4666 
z
" transform="scale(0.015625)"/>
     </defs>
     <use xlink:href="#DejaVuSans-50"/>
     <use xlink:href="#DejaVuSans-72" x="58.552734"/>
     <use xlink:href="#DejaVuSans-69" x="99.666016"/>
     <use xlink:href="#DejaVuSans-64" x="127.449219"/>
     <use xlink:href="#DejaVuSans-65" x="190.925781"/>
    </g>
   </g>
   <g id="text_34">
    <!-- Annoyance -->
    <g transform="translate(318.577717 327.763002)rotate(-40.989821)scale(0.1 -0.1)">
     <use xlink:href="#DejaVuSans-41"/>
     <use xlink:href="#DejaVuSans-6e" x="68.408203"/>
     <use xlink:href="#DejaVuSans-6e" x="131.787109"/>
     <use xlink:href="#DejaVuSans-6f" x="195.166016"/>
     <use xlink:href="#DejaVuSans-79" x="256.347656"/>
     <use xlink:href="#DejaVuSans-61" x="315.527344"/>
     <use xlink:href="#DejaVuSans-6e" x="376.806641"/>
     <use xlink:href="#DejaVuSans-63" x="440.185547"/>
     <use xlink:href="#DejaVuSans-65" x="495.166016"/>
    </g>
   </g>
   <g id="text_35">
    <!-- Disapproval -->
    <g transform="translate(256.081357 326.879945)rotate(-40.586604)scale(0.1 -0.1)">
     <use xlink:href="#DejaVuSans-44"/>
     <use xlink:href="#DejaVuSans-69" x="77.001953"/>
     <use xlink:href="#DejaVuSans-73" x="104.785156"/>
     <use xlink:href="#DejaVuSans-61" x="156.884766"/>
     <use xlink:href="#DejaVuSans-70" x="218.164062"/>
     <use xlink:href="#DejaVuSans-70" x="281.640625"/>
     <use xlink:href="#DejaVuSans-72" x="345.117188"/>
     <use xlink:href="#DejaVuSans-6f" x="383.980469"/>
     <use xlink:href="#DejaVuSans-76" x="445.162109"/>
     <use xlink:href="#DejaVuSans-61" x="504.341797"/>
     <use xlink:href="#DejaVuSans-6c" x="565.621094"/>
    </g>
   </g>
   <g id="text_36">
    <!-- Anger -->
    <g transform="translate(355.037954 238.419996)rotate(-40.558904)scale(0.1 -0.1)">
     <use xlink:href="#DejaVuSans-41"/>
     <use xlink:href="#DejaVuSans-6e" x="68.408203"/>
     <use xlink:href="#DejaVuSans-67" x="131.787109"/>
     <use xlink:href="#DejaVuSans-65" x="195.263672"/>
     <use xlink:href="#DejaVuSans-72" x="256.787109"/>
    </g>
   </g>
   <g id="text_37">
    <!-- Sadness -->
    <g transform="translate(180.081006 394.630257)rotate(-40.605688)scale(0.1 -0.1)">
     <defs>
      <path id="DejaVuSans-53" d="M 3425 4513 
L 3425 3897 
Q 3066 4069 2747 4153 
Q 2428 4238 2131 4238 
Q 1616 4238 1336 4038 
Q 1056 3838 1056 3469 
Q 1056 3159 1242 3001 
Q 1428 2844 1947 2747 
L 2328 2669 
Q 3034 2534 3370 2195 
Q 3706 1856 3706 1288 
Q 3706 609 3251 259 
Q 2797 -91 1919 -91 
Q 1588 -91 1214 -16 
Q 841 59 441 206 
L 441 856 
Q 825 641 1194 531 
Q 1563 422 1919 422 
Q 2459 422 2753 634 
Q 3047 847 3047 1241 
Q 3047 1584 2836 1778 
Q 2625 1972 2144 2069 
L 1759 2144 
Q 1053 2284 737 2584 
Q 422 2884 422 3419 
Q 422 4038 858 4394 
Q 1294 4750 2059 4750 
Q 2388 4750 2728 4690 
Q 3069 4631 3425 4513 
z
" transform="scale(0.015625)"/>
     </defs>
     <use xlink:href="#DejaVuSans-53"/>
     <use xlink:href="#DejaVuSans-61" x="63.476562"/>
     <use xlink:href="#DejaVuSans-64" x="124.755859"/>
     <use xlink:href="#DejaVuSans-6e" x="188.232422"/>
     <use xlink:href="#DejaVuSans-65" x="251.611328"/>
     <use xlink:href="#DejaVuSans-73" x="313.134766"/>
     <use xlink:href="#DejaVuSans-73" x="365.234375"/>
    </g>
   </g>
   <g id="text_38">
    <!-- Disappointment -->
    <g transform="translate(247.773768 340.815457)rotate(-40.636592)scale(0.1 -0.1)">
     <use xlink:href="#DejaVuSans-44"/>
     <use xlink:href="#DejaVuSans-69" x="77.001953"/>
     <use xlink:href="#DejaVuSans-73" x="104.785156"/>
     <use xlink:href="#DejaVuSans-61" x="156.884766"/>
     <use xlink:href="#DejaVuSans-70" x="218.164062"/>
     <use xlink:href="#DejaVuSans-70" x="281.640625"/>
     <use xlink:href="#DejaVuSans-6f" x="345.117188"/>
     <use xlink:href="#DejaVuSans-69" x="406.298828"/>
     <use xlink:href="#DejaVuSans-6e" x="434.082031"/>
     <use xlink:href="#DejaVuSans-74" x="497.460938"/>
     <use xlink:href="#DejaVuSans-6d" x="536.669922"/>
     <use xlink:href="#DejaVuSans-65" x="634.082031"/>
     <use xlink:href="#DejaVuSans-6e" x="695.605469"/>
     <use xlink:href="#DejaVuSans-74" x="758.984375"/>
    </g>
   </g>
   <g id="text_39">
    <!-- Disgust -->
    <g transform="translate(304.668351 323.060721)rotate(-40.866343)scale(0.1 -0.1)">
     <use xlink:href="#DejaVuSans-44"/>
     <use xlink:href="#DejaVuSans-69" x="77.001953"/>
     <use xlink:href="#DejaVuSans-73" x="104.785156"/>
     <use xlink:href="#DejaVuSans-67" x="156.884766"/>
     <use xlink:href="#DejaVuSans-75" x="220.361328"/>
     <use xlink:href="#DejaVuSans-73" x="283.740234"/>
     <use xlink:href="#DejaVuSans-74" x="335.839844"/>
    </g>
   </g>
   <g id="text_40">
    <!-- Fear -->
    <g transform="translate(325.87353 326.2944)rotate(-41.025733)scale(0.1 -0.1)">
     <defs>
      <path id="DejaVuSans-46" d="M 628 4666 
L 3309 4666 
L 3309 4134 
L 1259 4134 
L 1259 2759 
L 3109 2759 
L 3109 2228 
L 1259 2228 
L 1259 0 
L 628 0 
L 628 4666 
z
" transform="scale(0.015625)"/>
     </defs>
     <use xlink:href="#DejaVuSans-46"/>
     <use xlink:href="#DejaVuSans-65" x="52.019531"/>
     <use xlink:href="#DejaVuSans-61" x="113.542969"/>
     <use xlink:href="#DejaVuSans-72" x="174.822266"/>
    </g>
   </g>
   <g id="text_41">
    <!-- Remorse -->
    <g transform="translate(291.496983 317.626261)rotate(-40.742465)scale(0.1 -0.1)">
     <use xlink:href="#DejaVuSans-52"/>
     <use xlink:href="#DejaVuSans-65" x="64.982422"/>
     <use xlink:href="#DejaVuSans-6d" x="126.505859"/>
     <use xlink:href="#DejaVuSans-6f" x="223.917969"/>
     <use xlink:href="#DejaVuSans-72" x="285.099609"/>
     <use xlink:href="#DejaVuSans-73" x="326.212891"/>
     <use xlink:href="#DejaVuSans-65" x="378.3125"/>
    </g>
   </g>
   <g id="text_42">
    <!-- Embarrassment -->
    <g transform="translate(304.493972 357.825021)rotate(-41.120398)scale(0.1 -0.1)">
     <defs>
      <path id="DejaVuSans-62" d="M 3116 1747 
Q 3116 2381 2855 2742 
Q 2594 3103 2138 3103 
Q 1681 3103 1420 2742 
Q 1159 2381 1159 1747 
Q 1159 1113 1420 752 
Q 1681 391 2138 391 
Q 2594 391 2855 752 
Q 3116 1113 3116 1747 
z
M 1159 2969 
Q 1341 3281 1617 3432 
Q 1894 3584 2278 3584 
Q 2916 3584 3314 3078 
Q 3713 2572 3713 1747 
Q 3713 922 3314 415 
Q 2916 -91 2278 -91 
Q 1894 -91 1617 61 
Q 1341 213 1159 525 
L 1159 0 
L 581 0 
L 581 4863 
L 1159 4863 
L 1159 2969 
z
" transform="scale(0.015625)"/>
     </defs>
     <use xlink:href="#DejaVuSans-45"/>
     <use xlink:href="#DejaVuSans-6d" x="63.183594"/>
     <use xlink:href="#DejaVuSans-62" x="160.595703"/>
     <use xlink:href="#DejaVuSans-61" x="224.072266"/>
     <use xlink:href="#DejaVuSans-72" x="285.351562"/>
     <use xlink:href="#DejaVuSans-72" x="324.714844"/>
     <use xlink:href="#DejaVuSans-61" x="365.828125"/>
     <use xlink:href="#DejaVuSans-73" x="427.107422"/>
     <use xlink:href="#DejaVuSans-73" x="479.207031"/>
     <use xlink:href="#DejaVuSans-6d" x="531.306641"/>
     <use xlink:href="#DejaVuSans-65" x="628.71875"/>
     <use xlink:href="#DejaVuSans-6e" x="690.242188"/>
     <use xlink:href="#DejaVuSans-74" x="753.621094"/>
    </g>
   </g>
   <g id="text_43">
    <!-- Nervousness -->
    <g transform="translate(366.286158 340.289934)rotate(-41.389242)scale(0.1 -0.1)">
     <defs>
      <path id="DejaVuSans-4e" d="M 628 4666 
L 1478 4666 
L 3547 763 
L 3547 4666 
L 4159 4666 
L 4159 0 
L 3309 0 
L 1241 3903 
L 1241 0 
L 628 0 
L 628 4666 
z
" transform="scale(0.015625)"/>
     </defs>
     <use xlink:href="#DejaVuSans-4e"/>
     <use xlink:href="#DejaVuSans-65" x="74.804688"/>
     <use xlink:href="#DejaVuSans-72" x="136.328125"/>
     <use xlink:href="#DejaVuSans-76" x="177.441406"/>
     <use xlink:href="#DejaVuSans-6f" x="236.621094"/>
     <use xlink:href="#DejaVuSans-75" x="297.802734"/>
     <use xlink:href="#DejaVuSans-73" x="361.181641"/>
     <use xlink:href="#DejaVuSans-6e" x="413.28125"/>
     <use xlink:href="#DejaVuSans-65" x="476.660156"/>
     <use xlink:href="#DejaVuSans-73" x="538.183594"/>
     <use xlink:href="#DejaVuSans-73" x="590.283203"/>
    </g>
   </g>
   <g id="text_44">
    <!-- Grief -->
    <g transform="translate(274.939486 292.879338)rotate(-40.454626)scale(0.1 -0.1)">
     <use xlink:href="#DejaVuSans-47"/>
     <use xlink:href="#DejaVuSans-72" x="77.490234"/>
     <use xlink:href="#DejaVuSans-69" x="118.603516"/>
     <use xlink:href="#DejaVuSans-65" x="146.386719"/>
     <use xlink:href="#DejaVuSans-66" x="207.910156"/>
    </g>
   </g>
   <g id="text_45">
    <!-- Neutral -->
    <g transform="translate(251.2648 389.924863)rotate(-344.262861)scale(0.1 -0.1)">
     <use xlink:href="#DejaVuSans-4e"/>
     <use xlink:href="#DejaVuSans-65" x="74.804688"/>
     <use xlink:href="#DejaVuSans-75" x="136.328125"/>
     <use xlink:href="#DejaVuSans-74" x="199.707031"/>
     <use xlink:href="#DejaVuSans-72" x="238.916016"/>
     <use xlink:href="#DejaVuSans-61" x="280.029297"/>
     <use xlink:href="#DejaVuSans-6c" x="341.308594"/>
    </g>
   </g>
   <g id="text_46">
    <!-- Curiosity -->
    <g transform="translate(473.357303 341.386256)rotate(-345.835486)scale(0.1 -0.1)">
     <use xlink:href="#DejaVuSans-43"/>
     <use xlink:href="#DejaVuSans-75" x="69.824219"/>
     <use xlink:href="#DejaVuSans-72" x="133.203125"/>
     <use xlink:href="#DejaVuSans-69" x="174.316406"/>
     <use xlink:href="#DejaVuSans-6f" x="202.099609"/>
     <use xlink:href="#DejaVuSans-73" x="263.28125"/>
     <use xlink:href="#DejaVuSans-69" x="315.380859"/>
     <use xlink:href="#DejaVuSans-74" x="343.164062"/>
     <use xlink:href="#DejaVuSans-79" x="382.373047"/>
    </g>
   </g>
   <g id="text_47">
    <!-- Confusion -->
    <g transform="translate(323.168603 362.413668)rotate(-344.964099)scale(0.1 -0.1)">
     <use xlink:href="#DejaVuSans-43"/>
     <use xlink:href="#DejaVuSans-6f" x="69.824219"/>
     <use xlink:href="#DejaVuSans-6e" x="131.005859"/>
     <use xlink:href="#DejaVuSans-66" x="194.384766"/>
     <use xlink:href="#DejaVuSans-75" x="229.589844"/>
     <use xlink:href="#DejaVuSans-73" x="292.96875"/>
     <use xlink:href="#DejaVuSans-69" x="345.068359"/>
     <use xlink:href="#DejaVuSans-6f" x="372.851562"/>
     <use xlink:href="#DejaVuSans-6e" x="434.033203"/>
    </g>
   </g>
   <g id="text_48">
    <!-- Realization -->
    <g transform="translate(359.393325 244.858768)rotate(-346.835723)scale(0.1 -0.1)">
     <defs>
      <path id="DejaVuSans-7a" d="M 353 3500 
L 3084 3500 
L 3084 2975 
L 922 459 
L 3084 459 
L 3084 0 
L 275 0 
L 275 525 
L 2438 3041 
L 353 3041 
L 353 3500 
z
" transform="scale(0.015625)"/>
     </defs>
     <use xlink:href="#DejaVuSans-52"/>
     <use xlink:href="#DejaVuSans-65" x="64.982422"/>
     <use xlink:href="#DejaVuSans-61" x="126.505859"/>
     <use xlink:href="#DejaVuSans-6c" x="187.785156"/>
     <use xlink:href="#DejaVuSans-69" x="215.568359"/>
     <use xlink:href="#DejaVuSans-7a" x="243.351562"/>
     <use xlink:href="#DejaVuSans-61" x="295.841797"/>
     <use xlink:href="#DejaVuSans-74" x="357.121094"/>
     <use xlink:href="#DejaVuSans-69" x="396.330078"/>
     <use xlink:href="#DejaVuSans-6f" x="424.113281"/>
     <use xlink:href="#DejaVuSans-6e" x="485.294922"/>
    </g>
   </g>
   <g id="text_49">
    <!-- Surprise -->
    <g transform="translate(537.189328 315.455958)rotate(-346.426285)scale(0.1 -0.1)">
     <use xlink:href="#DejaVuSans-53"/>
     <use xlink:href="#DejaVuSans-75" x="63.476562"/>
     <use xlink:href="#DejaVuSans-72" x="126.855469"/>
     <use xlink:href="#DejaVuSans-70" x="167.96875"/>
     <use xlink:href="#DejaVuSans-72" x="231.445312"/>
     <use xlink:href="#DejaVuSans-69" x="272.558594"/>
     <use xlink:href="#DejaVuSans-73" x="300.341797"/>
     <use xlink:href="#DejaVuSans-65" x="352.441406"/>
    </g>
   </g>
   <g id="text_50">
    <!-- Emotion Labels -->
    <g transform="translate(256.66 83.39232)scale(0.2 -0.2)">
     <defs>
      <path id="DejaVuSans-20" transform="scale(0.015625)"/>
     </defs>
     <use xlink:href="#DejaVuSans-45"/>
     <use xlink:href="#DejaVuSans-6d" x="63.183594"/>
     <use xlink:href="#DejaVuSans-6f" x="160.595703"/>
     <use xlink:href="#DejaVuSans-74" x="221.777344"/>
     <use xlink:href="#DejaVuSans-69" x="260.986328"/>
     <use xlink:href="#DejaVuSans-6f" x="288.769531"/>
     <use xlink:href="#DejaVuSans-6e" x="349.951172"/>
     <use xlink:href="#DejaVuSans-20" x="413.330078"/>
     <use xlink:href="#DejaVuSans-4c" x="445.117188"/>
     <use xlink:href="#DejaVuSans-61" x="500.830078"/>
     <use xlink:href="#DejaVuSans-62" x="562.109375"/>
     <use xlink:href="#DejaVuSans-65" x="625.585938"/>
     <use xlink:href="#DejaVuSans-6c" x="687.109375"/>
     <use xlink:href="#DejaVuSans-73" x="714.892578"/>
    </g>
   </g>
   <g id="Path3DCollection_2">
    <path d="M 322.629082 351.539841 
L 319.093548 358.610909 
L 326.164616 358.610909 
z
" clip-path="url(#pf333cf0b7e)" style="fill: #b8860b; fill-opacity: 0.3; stroke: #b8860b; stroke-opacity: 0.3"/>
    <path d="M 472.848389 330.4833 
L 469.312855 337.554367 
L 476.383923 337.554367 
z
" clip-path="url(#pf333cf0b7e)" style="fill: #b8860b; fill-opacity: 0.739013; stroke: #b8860b; stroke-opacity: 0.739013"/>
    <path d="M 536.701233 304.53422 
L 533.165699 311.605288 
L 540.236767 311.605288 
z
" clip-path="url(#pf333cf0b7e)" style="fill: #b8860b; fill-opacity: 0.771755; stroke: #b8860b; stroke-opacity: 0.771755"/>
    <path d="M 358.919689 233.924476 
L 355.384155 240.995543 
L 362.455223 240.995543 
z
" clip-path="url(#pf333cf0b7e)" style="fill: #b8860b; fill-opacity: 0.893514; stroke: #b8860b; stroke-opacity: 0.893514"/>
    <path d="M 250.700738 379.07571 
L 247.165204 386.146778 
L 254.236272 386.146778 
z
" clip-path="url(#pf333cf0b7e)" style="fill: #b8860b; stroke: #b8860b"/>
   </g>
   <g id="Path3DCollection_3">
    <defs>
     <path id="C0_0_90d574ed7d" d="M 0 3.535534 
C 0.937635 3.535534 1.836992 3.163008 2.5 2.5 
C 3.163008 1.836992 3.535534 0.937635 3.535534 -0 
C 3.535534 -0.937635 3.163008 -1.836992 2.5 -2.5 
C 1.836992 -3.163008 0.937635 -3.535534 0 -3.535534 
C -0.937635 -3.535534 -1.836992 -3.163008 -2.5 -2.5 
C -3.163008 -1.836992 -3.535534 -0.937635 -3.535534 0 
C -3.535534 0.937635 -3.163008 1.836992 -2.5 2.5 
C -1.836992 3.163008 -0.937635 3.535534 0 3.535534 
z
"/>
    </defs>
    <g clip-path="url(#pf333cf0b7e)">
     <use xlink:href="#C0_0_90d574ed7d" x="369.436828" y="335.80708" style="fill: #2e8b57; fill-opacity: 0.3; stroke: #2e8b57; stroke-opacity: 0.3"/>
    </g>
    <g clip-path="url(#pf333cf0b7e)">
     <use xlink:href="#C0_0_90d574ed7d" x="543.142801" y="249.347822" style="fill: #2e8b57; fill-opacity: 0.320898; stroke: #2e8b57; stroke-opacity: 0.320898"/>
    </g>
    <g clip-path="url(#pf333cf0b7e)">
     <use xlink:href="#C0_0_90d574ed7d" x="437.519966" y="237.356924" style="fill: #2e8b57; fill-opacity: 0.348192; stroke: #2e8b57; stroke-opacity: 0.348192"/>
    </g>
    <g clip-path="url(#pf333cf0b7e)">
     <use xlink:href="#C0_0_90d574ed7d" x="554.048085" y="255.809266" style="fill: #2e8b57; fill-opacity: 0.42746; stroke: #2e8b57; stroke-opacity: 0.42746"/>
    </g>
    <g clip-path="url(#pf333cf0b7e)">
     <use xlink:href="#C0_0_90d574ed7d" x="497.196626" y="298.759303" style="fill: #2e8b57; fill-opacity: 0.438304; stroke: #2e8b57; stroke-opacity: 0.438304"/>
    </g>
    <g clip-path="url(#pf333cf0b7e)">
     <use xlink:href="#C0_0_90d574ed7d" x="495.440296" y="276.50568" style="fill: #2e8b57; fill-opacity: 0.494006; stroke: #2e8b57; stroke-opacity: 0.494006"/>
    </g>
    <g clip-path="url(#pf333cf0b7e)">
     <use xlink:href="#C0_0_90d574ed7d" x="489.886611" y="289.31965" style="fill: #2e8b57; fill-opacity: 0.80013; stroke: #2e8b57; stroke-opacity: 0.80013"/>
    </g>
    <g clip-path="url(#pf333cf0b7e)">
     <use xlink:href="#C0_0_90d574ed7d" x="479.950457" y="264.955036" style="fill: #2e8b57; fill-opacity: 0.841531; stroke: #2e8b57; stroke-opacity: 0.841531"/>
    </g>
    <g clip-path="url(#pf333cf0b7e)">
     <use xlink:href="#C0_0_90d574ed7d" x="429.570906" y="325.139628" style="fill: #2e8b57; fill-opacity: 0.845177; stroke: #2e8b57; stroke-opacity: 0.845177"/>
    </g>
    <g clip-path="url(#pf333cf0b7e)">
     <use xlink:href="#C0_0_90d574ed7d" x="426.535362" y="244.869261" style="fill: #2e8b57; fill-opacity: 0.898102; stroke: #2e8b57; stroke-opacity: 0.898102"/>
    </g>
    <g clip-path="url(#pf333cf0b7e)">
     <use xlink:href="#C0_0_90d574ed7d" x="481.874638" y="310.346164" style="fill: #2e8b57; fill-opacity: 0.944564; stroke: #2e8b57; stroke-opacity: 0.944564"/>
    </g>
    <g clip-path="url(#pf333cf0b7e)">
     <use xlink:href="#C0_0_90d574ed7d" x="375.087796" y="369.316185" style="fill: #2e8b57; stroke: #2e8b57"/>
    </g>
   </g>
  </g>
 </g>
 <defs>
  <clipPath id="pf333cf0b7e">
   <rect x="7.2" y="7.2" width="652.32" height="652.32"/>
  </clipPath>
 </defs>
</svg>
