<?xml version="1.0" encoding="utf-8" standalone="no"?>
<!DOCTYPE svg PUBLIC "-//W3C//DTD SVG 1.1//EN"
  "http://www.w3.org/Graphics/SVG/1.1/DTD/svg11.dtd">
<svg xmlns:xlink="http://www.w3.org/1999/xlink" width="499.965pt" height="512.446875pt" viewBox="0 0 499.965 512.446875" xmlns="http://www.w3.org/2000/svg" version="1.1">
 <metadata>
  <rdf:RDF xmlns:dc="http://purl.org/dc/elements/1.1/" xmlns:cc="http://creativecommons.org/ns#" xmlns:rdf="http://www.w3.org/1999/02/22-rdf-syntax-ns#">
   <cc:Work>
    <dc:type rdf:resource="http://purl.org/dc/dcmitype/StillImage"/>
    <dc:date>2022-04-11T16:22:10.727674</dc:date>
    <dc:format>image/svg+xml</dc:format>
    <dc:creator>
     <cc:Agent>
      <dc:title>Matplotlib v3.5.1, https://matplotlib.org/</dc:title>
     </cc:Agent>
    </dc:creator>
   </cc:Work>
  </rdf:RDF>
 </metadata>
 <defs>
  <style type="text/css">*{stroke-linejoin: round; stroke-linecap: butt}</style>
 </defs>
 <g id="figure_1">
  <g id="patch_1">
   <path d="M 0 512.446875 
L 499.965 512.446875 
L 499.965 0 
L 0 0 
L 0 512.446875 
z
" style="fill: none"/>
  </g>
  <g id="axes_1">
   <g id="patch_2">
    <path d="M 57.885 463.276875 
L 492.765 463.276875 
L 492.765 28.396875 
L 57.885 28.396875 
z
" style="fill: #ffffff"/>
   </g>
   <g id="matplotlib.axis_1">
    <g id="xtick_1">
     <g id="line2d_1">
      <path d="M 77.652273 463.276875 
L 77.652273 28.396875 
" clip-path="url(#p63505e9a6f)" style="fill: none; stroke-dasharray: 2.96,1.28; stroke-dashoffset: 0; stroke: #bfbfbf; stroke-width: 0.8"/>
     </g>
     <g id="line2d_2">
      <defs>
       <path id="m3ece36a1d2" d="M 0 0 
L 0 3.5 
" style="stroke: #000000; stroke-width: 0.8"/>
      </defs>
      <g>
       <use xlink:href="#m3ece36a1d2" x="77.652273" y="463.276875" style="stroke: #000000; stroke-width: 0.8"/>
      </g>
     </g>
     <g id="text_1">
      <!-- 0.0 -->
      <g transform="translate(66.520085 480.914688)scale(0.14 -0.14)">
       <defs>
        <path id="DejaVuSans-30" d="M 2034 4250 
Q 1547 4250 1301 3770 
Q 1056 3291 1056 2328 
Q 1056 1369 1301 889 
Q 1547 409 2034 409 
Q 2525 409 2770 889 
Q 3016 1369 3016 2328 
Q 3016 3291 2770 3770 
Q 2525 4250 2034 4250 
z
M 2034 4750 
Q 2819 4750 3233 4129 
Q 3647 3509 3647 2328 
Q 3647 1150 3233 529 
Q 2819 -91 2034 -91 
Q 1250 -91 836 529 
Q 422 1150 422 2328 
Q 422 3509 836 4129 
Q 1250 4750 2034 4750 
z
" transform="scale(0.015625)"/>
        <path id="DejaVuSans-2e" d="M 684 794 
L 1344 794 
L 1344 0 
L 684 0 
L 684 794 
z
" transform="scale(0.015625)"/>
       </defs>
       <use xlink:href="#DejaVuSans-30"/>
       <use xlink:href="#DejaVuSans-2e" x="63.623047"/>
       <use xlink:href="#DejaVuSans-30" x="95.410156"/>
      </g>
     </g>
    </g>
    <g id="xtick_2">
     <g id="line2d_3">
      <path d="M 117.186818 463.276875 
L 117.186818 28.396875 
" clip-path="url(#p63505e9a6f)" style="fill: none; stroke-dasharray: 2.96,1.28; stroke-dashoffset: 0; stroke: #bfbfbf; stroke-width: 0.8"/>
     </g>
     <g id="line2d_4">
      <g>
       <use xlink:href="#m3ece36a1d2" x="117.186818" y="463.276875" style="stroke: #000000; stroke-width: 0.8"/>
      </g>
     </g>
     <g id="text_2">
      <!-- 0.1 -->
      <g transform="translate(106.054631 480.914688)scale(0.14 -0.14)">
       <defs>
        <path id="DejaVuSans-31" d="M 794 531 
L 1825 531 
L 1825 4091 
L 703 3866 
L 703 4441 
L 1819 4666 
L 2450 4666 
L 2450 531 
L 3481 531 
L 3481 0 
L 794 0 
L 794 531 
z
" transform="scale(0.015625)"/>
       </defs>
       <use xlink:href="#DejaVuSans-30"/>
       <use xlink:href="#DejaVuSans-2e" x="63.623047"/>
       <use xlink:href="#DejaVuSans-31" x="95.410156"/>
      </g>
     </g>
    </g>
    <g id="xtick_3">
     <g id="line2d_5">
      <path d="M 156.721364 463.276875 
L 156.721364 28.396875 
" clip-path="url(#p63505e9a6f)" style="fill: none; stroke-dasharray: 2.96,1.28; stroke-dashoffset: 0; stroke: #bfbfbf; stroke-width: 0.8"/>
     </g>
     <g id="line2d_6">
      <g>
       <use xlink:href="#m3ece36a1d2" x="156.721364" y="463.276875" style="stroke: #000000; stroke-width: 0.8"/>
      </g>
     </g>
     <g id="text_3">
      <!-- 0.2 -->
      <g transform="translate(145.589176 480.914688)scale(0.14 -0.14)">
       <defs>
        <path id="DejaVuSans-32" d="M 1228 531 
L 3431 531 
L 3431 0 
L 469 0 
L 469 531 
Q 828 903 1448 1529 
Q 2069 2156 2228 2338 
Q 2531 2678 2651 2914 
Q 2772 3150 2772 3378 
Q 2772 3750 2511 3984 
Q 2250 4219 1831 4219 
Q 1534 4219 1204 4116 
Q 875 4013 500 3803 
L 500 4441 
Q 881 4594 1212 4672 
Q 1544 4750 1819 4750 
Q 2544 4750 2975 4387 
Q 3406 4025 3406 3419 
Q 3406 3131 3298 2873 
Q 3191 2616 2906 2266 
Q 2828 2175 2409 1742 
Q 1991 1309 1228 531 
z
" transform="scale(0.015625)"/>
       </defs>
       <use xlink:href="#DejaVuSans-30"/>
       <use xlink:href="#DejaVuSans-2e" x="63.623047"/>
       <use xlink:href="#DejaVuSans-32" x="95.410156"/>
      </g>
     </g>
    </g>
    <g id="xtick_4">
     <g id="line2d_7">
      <path d="M 196.255909 463.276875 
L 196.255909 28.396875 
" clip-path="url(#p63505e9a6f)" style="fill: none; stroke-dasharray: 2.96,1.28; stroke-dashoffset: 0; stroke: #bfbfbf; stroke-width: 0.8"/>
     </g>
     <g id="line2d_8">
      <g>
       <use xlink:href="#m3ece36a1d2" x="196.255909" y="463.276875" style="stroke: #000000; stroke-width: 0.8"/>
      </g>
     </g>
     <g id="text_4">
      <!-- 0.3 -->
      <g transform="translate(185.123722 480.914688)scale(0.14 -0.14)">
       <defs>
        <path id="DejaVuSans-33" d="M 2597 2516 
Q 3050 2419 3304 2112 
Q 3559 1806 3559 1356 
Q 3559 666 3084 287 
Q 2609 -91 1734 -91 
Q 1441 -91 1130 -33 
Q 819 25 488 141 
L 488 750 
Q 750 597 1062 519 
Q 1375 441 1716 441 
Q 2309 441 2620 675 
Q 2931 909 2931 1356 
Q 2931 1769 2642 2001 
Q 2353 2234 1838 2234 
L 1294 2234 
L 1294 2753 
L 1863 2753 
Q 2328 2753 2575 2939 
Q 2822 3125 2822 3475 
Q 2822 3834 2567 4026 
Q 2313 4219 1838 4219 
Q 1578 4219 1281 4162 
Q 984 4106 628 3988 
L 628 4550 
Q 988 4650 1302 4700 
Q 1616 4750 1894 4750 
Q 2613 4750 3031 4423 
Q 3450 4097 3450 3541 
Q 3450 3153 3228 2886 
Q 3006 2619 2597 2516 
z
" transform="scale(0.015625)"/>
       </defs>
       <use xlink:href="#DejaVuSans-30"/>
       <use xlink:href="#DejaVuSans-2e" x="63.623047"/>
       <use xlink:href="#DejaVuSans-33" x="95.410156"/>
      </g>
     </g>
    </g>
    <g id="xtick_5">
     <g id="line2d_9">
      <path d="M 235.790455 463.276875 
L 235.790455 28.396875 
" clip-path="url(#p63505e9a6f)" style="fill: none; stroke-dasharray: 2.96,1.28; stroke-dashoffset: 0; stroke: #bfbfbf; stroke-width: 0.8"/>
     </g>
     <g id="line2d_10">
      <g>
       <use xlink:href="#m3ece36a1d2" x="235.790455" y="463.276875" style="stroke: #000000; stroke-width: 0.8"/>
      </g>
     </g>
     <g id="text_5">
      <!-- 0.4 -->
      <g transform="translate(224.658267 480.914688)scale(0.14 -0.14)">
       <defs>
        <path id="DejaVuSans-34" d="M 2419 4116 
L 825 1625 
L 2419 1625 
L 2419 4116 
z
M 2253 4666 
L 3047 4666 
L 3047 1625 
L 3713 1625 
L 3713 1100 
L 3047 1100 
L 3047 0 
L 2419 0 
L 2419 1100 
L 313 1100 
L 313 1709 
L 2253 4666 
z
" transform="scale(0.015625)"/>
       </defs>
       <use xlink:href="#DejaVuSans-30"/>
       <use xlink:href="#DejaVuSans-2e" x="63.623047"/>
       <use xlink:href="#DejaVuSans-34" x="95.410156"/>
      </g>
     </g>
    </g>
    <g id="xtick_6">
     <g id="line2d_11">
      <path d="M 275.325 463.276875 
L 275.325 28.396875 
" clip-path="url(#p63505e9a6f)" style="fill: none; stroke-dasharray: 2.96,1.28; stroke-dashoffset: 0; stroke: #bfbfbf; stroke-width: 0.8"/>
     </g>
     <g id="line2d_12">
      <g>
       <use xlink:href="#m3ece36a1d2" x="275.325" y="463.276875" style="stroke: #000000; stroke-width: 0.8"/>
      </g>
     </g>
     <g id="text_6">
      <!-- 0.5 -->
      <g transform="translate(264.192813 480.914688)scale(0.14 -0.14)">
       <defs>
        <path id="DejaVuSans-35" d="M 691 4666 
L 3169 4666 
L 3169 4134 
L 1269 4134 
L 1269 2991 
Q 1406 3038 1543 3061 
Q 1681 3084 1819 3084 
Q 2600 3084 3056 2656 
Q 3513 2228 3513 1497 
Q 3513 744 3044 326 
Q 2575 -91 1722 -91 
Q 1428 -91 1123 -41 
Q 819 9 494 109 
L 494 744 
Q 775 591 1075 516 
Q 1375 441 1709 441 
Q 2250 441 2565 725 
Q 2881 1009 2881 1497 
Q 2881 1984 2565 2268 
Q 2250 2553 1709 2553 
Q 1456 2553 1204 2497 
Q 953 2441 691 2322 
L 691 4666 
z
" transform="scale(0.015625)"/>
       </defs>
       <use xlink:href="#DejaVuSans-30"/>
       <use xlink:href="#DejaVuSans-2e" x="63.623047"/>
       <use xlink:href="#DejaVuSans-35" x="95.410156"/>
      </g>
     </g>
    </g>
    <g id="xtick_7">
     <g id="line2d_13">
      <path d="M 314.859545 463.276875 
L 314.859545 28.396875 
" clip-path="url(#p63505e9a6f)" style="fill: none; stroke-dasharray: 2.96,1.28; stroke-dashoffset: 0; stroke: #bfbfbf; stroke-width: 0.8"/>
     </g>
     <g id="line2d_14">
      <g>
       <use xlink:href="#m3ece36a1d2" x="314.859545" y="463.276875" style="stroke: #000000; stroke-width: 0.8"/>
      </g>
     </g>
     <g id="text_7">
      <!-- 0.6 -->
      <g transform="translate(303.727358 480.914688)scale(0.14 -0.14)">
       <defs>
        <path id="DejaVuSans-36" d="M 2113 2584 
Q 1688 2584 1439 2293 
Q 1191 2003 1191 1497 
Q 1191 994 1439 701 
Q 1688 409 2113 409 
Q 2538 409 2786 701 
Q 3034 994 3034 1497 
Q 3034 2003 2786 2293 
Q 2538 2584 2113 2584 
z
M 3366 4563 
L 3366 3988 
Q 3128 4100 2886 4159 
Q 2644 4219 2406 4219 
Q 1781 4219 1451 3797 
Q 1122 3375 1075 2522 
Q 1259 2794 1537 2939 
Q 1816 3084 2150 3084 
Q 2853 3084 3261 2657 
Q 3669 2231 3669 1497 
Q 3669 778 3244 343 
Q 2819 -91 2113 -91 
Q 1303 -91 875 529 
Q 447 1150 447 2328 
Q 447 3434 972 4092 
Q 1497 4750 2381 4750 
Q 2619 4750 2861 4703 
Q 3103 4656 3366 4563 
z
" transform="scale(0.015625)"/>
       </defs>
       <use xlink:href="#DejaVuSans-30"/>
       <use xlink:href="#DejaVuSans-2e" x="63.623047"/>
       <use xlink:href="#DejaVuSans-36" x="95.410156"/>
      </g>
     </g>
    </g>
    <g id="xtick_8">
     <g id="line2d_15">
      <path d="M 354.394091 463.276875 
L 354.394091 28.396875 
" clip-path="url(#p63505e9a6f)" style="fill: none; stroke-dasharray: 2.96,1.28; stroke-dashoffset: 0; stroke: #bfbfbf; stroke-width: 0.8"/>
     </g>
     <g id="line2d_16">
      <g>
       <use xlink:href="#m3ece36a1d2" x="354.394091" y="463.276875" style="stroke: #000000; stroke-width: 0.8"/>
      </g>
     </g>
     <g id="text_8">
      <!-- 0.7 -->
      <g transform="translate(343.261903 480.914688)scale(0.14 -0.14)">
       <defs>
        <path id="DejaVuSans-37" d="M 525 4666 
L 3525 4666 
L 3525 4397 
L 1831 0 
L 1172 0 
L 2766 4134 
L 525 4134 
L 525 4666 
z
" transform="scale(0.015625)"/>
       </defs>
       <use xlink:href="#DejaVuSans-30"/>
       <use xlink:href="#DejaVuSans-2e" x="63.623047"/>
       <use xlink:href="#DejaVuSans-37" x="95.410156"/>
      </g>
     </g>
    </g>
    <g id="xtick_9">
     <g id="line2d_17">
      <path d="M 393.928636 463.276875 
L 393.928636 28.396875 
" clip-path="url(#p63505e9a6f)" style="fill: none; stroke-dasharray: 2.96,1.28; stroke-dashoffset: 0; stroke: #bfbfbf; stroke-width: 0.8"/>
     </g>
     <g id="line2d_18">
      <g>
       <use xlink:href="#m3ece36a1d2" x="393.928636" y="463.276875" style="stroke: #000000; stroke-width: 0.8"/>
      </g>
     </g>
     <g id="text_9">
      <!-- 0.8 -->
      <g transform="translate(382.796449 480.914688)scale(0.14 -0.14)">
       <defs>
        <path id="DejaVuSans-38" d="M 2034 2216 
Q 1584 2216 1326 1975 
Q 1069 1734 1069 1313 
Q 1069 891 1326 650 
Q 1584 409 2034 409 
Q 2484 409 2743 651 
Q 3003 894 3003 1313 
Q 3003 1734 2745 1975 
Q 2488 2216 2034 2216 
z
M 1403 2484 
Q 997 2584 770 2862 
Q 544 3141 544 3541 
Q 544 4100 942 4425 
Q 1341 4750 2034 4750 
Q 2731 4750 3128 4425 
Q 3525 4100 3525 3541 
Q 3525 3141 3298 2862 
Q 3072 2584 2669 2484 
Q 3125 2378 3379 2068 
Q 3634 1759 3634 1313 
Q 3634 634 3220 271 
Q 2806 -91 2034 -91 
Q 1263 -91 848 271 
Q 434 634 434 1313 
Q 434 1759 690 2068 
Q 947 2378 1403 2484 
z
M 1172 3481 
Q 1172 3119 1398 2916 
Q 1625 2713 2034 2713 
Q 2441 2713 2670 2916 
Q 2900 3119 2900 3481 
Q 2900 3844 2670 4047 
Q 2441 4250 2034 4250 
Q 1625 4250 1398 4047 
Q 1172 3844 1172 3481 
z
" transform="scale(0.015625)"/>
       </defs>
       <use xlink:href="#DejaVuSans-30"/>
       <use xlink:href="#DejaVuSans-2e" x="63.623047"/>
       <use xlink:href="#DejaVuSans-38" x="95.410156"/>
      </g>
     </g>
    </g>
    <g id="xtick_10">
     <g id="line2d_19">
      <path d="M 433.463182 463.276875 
L 433.463182 28.396875 
" clip-path="url(#p63505e9a6f)" style="fill: none; stroke-dasharray: 2.96,1.28; stroke-dashoffset: 0; stroke: #bfbfbf; stroke-width: 0.8"/>
     </g>
     <g id="line2d_20">
      <g>
       <use xlink:href="#m3ece36a1d2" x="433.463182" y="463.276875" style="stroke: #000000; stroke-width: 0.8"/>
      </g>
     </g>
     <g id="text_10">
      <!-- 0.9 -->
      <g transform="translate(422.330994 480.914688)scale(0.14 -0.14)">
       <defs>
        <path id="DejaVuSans-39" d="M 703 97 
L 703 672 
Q 941 559 1184 500 
Q 1428 441 1663 441 
Q 2288 441 2617 861 
Q 2947 1281 2994 2138 
Q 2813 1869 2534 1725 
Q 2256 1581 1919 1581 
Q 1219 1581 811 2004 
Q 403 2428 403 3163 
Q 403 3881 828 4315 
Q 1253 4750 1959 4750 
Q 2769 4750 3195 4129 
Q 3622 3509 3622 2328 
Q 3622 1225 3098 567 
Q 2575 -91 1691 -91 
Q 1453 -91 1209 -44 
Q 966 3 703 97 
z
M 1959 2075 
Q 2384 2075 2632 2365 
Q 2881 2656 2881 3163 
Q 2881 3666 2632 3958 
Q 2384 4250 1959 4250 
Q 1534 4250 1286 3958 
Q 1038 3666 1038 3163 
Q 1038 2656 1286 2365 
Q 1534 2075 1959 2075 
z
" transform="scale(0.015625)"/>
       </defs>
       <use xlink:href="#DejaVuSans-30"/>
       <use xlink:href="#DejaVuSans-2e" x="63.623047"/>
       <use xlink:href="#DejaVuSans-39" x="95.410156"/>
      </g>
     </g>
    </g>
    <g id="xtick_11">
     <g id="line2d_21">
      <path d="M 472.997727 463.276875 
L 472.997727 28.396875 
" clip-path="url(#p63505e9a6f)" style="fill: none; stroke-dasharray: 2.96,1.28; stroke-dashoffset: 0; stroke: #bfbfbf; stroke-width: 0.8"/>
     </g>
     <g id="line2d_22">
      <g>
       <use xlink:href="#m3ece36a1d2" x="472.997727" y="463.276875" style="stroke: #000000; stroke-width: 0.8"/>
      </g>
     </g>
     <g id="text_11">
      <!-- 1.0 -->
      <g transform="translate(461.86554 480.914688)scale(0.14 -0.14)">
       <use xlink:href="#DejaVuSans-31"/>
       <use xlink:href="#DejaVuSans-2e" x="63.623047"/>
       <use xlink:href="#DejaVuSans-30" x="95.410156"/>
      </g>
     </g>
    </g>
    <g id="text_12">
     <!-- Valence -->
     <g transform="translate(240.122344 501.503437)scale(0.18 -0.18)">
      <defs>
       <path id="DejaVuSans-56" d="M 1831 0 
L 50 4666 
L 709 4666 
L 2188 738 
L 3669 4666 
L 4325 4666 
L 2547 0 
L 1831 0 
z
" transform="scale(0.015625)"/>
       <path id="DejaVuSans-61" d="M 2194 1759 
Q 1497 1759 1228 1600 
Q 959 1441 959 1056 
Q 959 750 1161 570 
Q 1363 391 1709 391 
Q 2188 391 2477 730 
Q 2766 1069 2766 1631 
L 2766 1759 
L 2194 1759 
z
M 3341 1997 
L 3341 0 
L 2766 0 
L 2766 531 
Q 2569 213 2275 61 
Q 1981 -91 1556 -91 
Q 1019 -91 701 211 
Q 384 513 384 1019 
Q 384 1609 779 1909 
Q 1175 2209 1959 2209 
L 2766 2209 
L 2766 2266 
Q 2766 2663 2505 2880 
Q 2244 3097 1772 3097 
Q 1472 3097 1187 3025 
Q 903 2953 641 2809 
L 641 3341 
Q 956 3463 1253 3523 
Q 1550 3584 1831 3584 
Q 2591 3584 2966 3190 
Q 3341 2797 3341 1997 
z
" transform="scale(0.015625)"/>
       <path id="DejaVuSans-6c" d="M 603 4863 
L 1178 4863 
L 1178 0 
L 603 0 
L 603 4863 
z
" transform="scale(0.015625)"/>
       <path id="DejaVuSans-65" d="M 3597 1894 
L 3597 1613 
L 953 1613 
Q 991 1019 1311 708 
Q 1631 397 2203 397 
Q 2534 397 2845 478 
Q 3156 559 3463 722 
L 3463 178 
Q 3153 47 2828 -22 
Q 2503 -91 2169 -91 
Q 1331 -91 842 396 
Q 353 884 353 1716 
Q 353 2575 817 3079 
Q 1281 3584 2069 3584 
Q 2775 3584 3186 3129 
Q 3597 2675 3597 1894 
z
M 3022 2063 
Q 3016 2534 2758 2815 
Q 2500 3097 2075 3097 
Q 1594 3097 1305 2825 
Q 1016 2553 972 2059 
L 3022 2063 
z
" transform="scale(0.015625)"/>
       <path id="DejaVuSans-6e" d="M 3513 2113 
L 3513 0 
L 2938 0 
L 2938 2094 
Q 2938 2591 2744 2837 
Q 2550 3084 2163 3084 
Q 1697 3084 1428 2787 
Q 1159 2491 1159 1978 
L 1159 0 
L 581 0 
L 581 3500 
L 1159 3500 
L 1159 2956 
Q 1366 3272 1645 3428 
Q 1925 3584 2291 3584 
Q 2894 3584 3203 3211 
Q 3513 2838 3513 2113 
z
" transform="scale(0.015625)"/>
       <path id="DejaVuSans-63" d="M 3122 3366 
L 3122 2828 
Q 2878 2963 2633 3030 
Q 2388 3097 2138 3097 
Q 1578 3097 1268 2742 
Q 959 2388 959 1747 
Q 959 1106 1268 751 
Q 1578 397 2138 397 
Q 2388 397 2633 464 
Q 2878 531 3122 666 
L 3122 134 
Q 2881 22 2623 -34 
Q 2366 -91 2075 -91 
Q 1284 -91 818 406 
Q 353 903 353 1747 
Q 353 2603 823 3093 
Q 1294 3584 2113 3584 
Q 2378 3584 2631 3529 
Q 2884 3475 3122 3366 
z
" transform="scale(0.015625)"/>
      </defs>
      <use xlink:href="#DejaVuSans-56"/>
      <use xlink:href="#DejaVuSans-61" x="60.658203"/>
      <use xlink:href="#DejaVuSans-6c" x="121.9375"/>
      <use xlink:href="#DejaVuSans-65" x="149.720703"/>
      <use xlink:href="#DejaVuSans-6e" x="211.244141"/>
      <use xlink:href="#DejaVuSans-63" x="274.623047"/>
      <use xlink:href="#DejaVuSans-65" x="329.603516"/>
     </g>
    </g>
   </g>
   <g id="matplotlib.axis_2">
    <g id="ytick_1">
     <g id="line2d_23">
      <path d="M 57.885 443.509602 
L 492.765 443.509602 
" clip-path="url(#p63505e9a6f)" style="fill: none; stroke-dasharray: 2.96,1.28; stroke-dashoffset: 0; stroke: #bfbfbf; stroke-width: 0.8"/>
     </g>
     <g id="line2d_24">
      <defs>
       <path id="md53bf37544" d="M 0 0 
L -3.5 0 
" style="stroke: #000000; stroke-width: 0.8"/>
      </defs>
      <g>
       <use xlink:href="#md53bf37544" x="57.885" y="443.509602" style="stroke: #000000; stroke-width: 0.8"/>
      </g>
     </g>
     <g id="text_13">
      <!-- 0.0 -->
      <g transform="translate(28.620625 448.828509)scale(0.14 -0.14)">
       <use xlink:href="#DejaVuSans-30"/>
       <use xlink:href="#DejaVuSans-2e" x="63.623047"/>
       <use xlink:href="#DejaVuSans-30" x="95.410156"/>
      </g>
     </g>
    </g>
    <g id="ytick_2">
     <g id="line2d_25">
      <path d="M 57.885 403.975057 
L 492.765 403.975057 
" clip-path="url(#p63505e9a6f)" style="fill: none; stroke-dasharray: 2.96,1.28; stroke-dashoffset: 0; stroke: #bfbfbf; stroke-width: 0.8"/>
     </g>
     <g id="line2d_26">
      <g>
       <use xlink:href="#md53bf37544" x="57.885" y="403.975057" style="stroke: #000000; stroke-width: 0.8"/>
      </g>
     </g>
     <g id="text_14">
      <!-- 0.1 -->
      <g transform="translate(28.620625 409.293963)scale(0.14 -0.14)">
       <use xlink:href="#DejaVuSans-30"/>
       <use xlink:href="#DejaVuSans-2e" x="63.623047"/>
       <use xlink:href="#DejaVuSans-31" x="95.410156"/>
      </g>
     </g>
    </g>
    <g id="ytick_3">
     <g id="line2d_27">
      <path d="M 57.885 364.440511 
L 492.765 364.440511 
" clip-path="url(#p63505e9a6f)" style="fill: none; stroke-dasharray: 2.96,1.28; stroke-dashoffset: 0; stroke: #bfbfbf; stroke-width: 0.8"/>
     </g>
     <g id="line2d_28">
      <g>
       <use xlink:href="#md53bf37544" x="57.885" y="364.440511" style="stroke: #000000; stroke-width: 0.8"/>
      </g>
     </g>
     <g id="text_15">
      <!-- 0.2 -->
      <g transform="translate(28.620625 369.759418)scale(0.14 -0.14)">
       <use xlink:href="#DejaVuSans-30"/>
       <use xlink:href="#DejaVuSans-2e" x="63.623047"/>
       <use xlink:href="#DejaVuSans-32" x="95.410156"/>
      </g>
     </g>
    </g>
    <g id="ytick_4">
     <g id="line2d_29">
      <path d="M 57.885 324.905966 
L 492.765 324.905966 
" clip-path="url(#p63505e9a6f)" style="fill: none; stroke-dasharray: 2.96,1.28; stroke-dashoffset: 0; stroke: #bfbfbf; stroke-width: 0.8"/>
     </g>
     <g id="line2d_30">
      <g>
       <use xlink:href="#md53bf37544" x="57.885" y="324.905966" style="stroke: #000000; stroke-width: 0.8"/>
      </g>
     </g>
     <g id="text_16">
      <!-- 0.3 -->
      <g transform="translate(28.620625 330.224872)scale(0.14 -0.14)">
       <use xlink:href="#DejaVuSans-30"/>
       <use xlink:href="#DejaVuSans-2e" x="63.623047"/>
       <use xlink:href="#DejaVuSans-33" x="95.410156"/>
      </g>
     </g>
    </g>
    <g id="ytick_5">
     <g id="line2d_31">
      <path d="M 57.885 285.37142 
L 492.765 285.37142 
" clip-path="url(#p63505e9a6f)" style="fill: none; stroke-dasharray: 2.96,1.28; stroke-dashoffset: 0; stroke: #bfbfbf; stroke-width: 0.8"/>
     </g>
     <g id="line2d_32">
      <g>
       <use xlink:href="#md53bf37544" x="57.885" y="285.37142" style="stroke: #000000; stroke-width: 0.8"/>
      </g>
     </g>
     <g id="text_17">
      <!-- 0.4 -->
      <g transform="translate(28.620625 290.690327)scale(0.14 -0.14)">
       <use xlink:href="#DejaVuSans-30"/>
       <use xlink:href="#DejaVuSans-2e" x="63.623047"/>
       <use xlink:href="#DejaVuSans-34" x="95.410156"/>
      </g>
     </g>
    </g>
    <g id="ytick_6">
     <g id="line2d_33">
      <path d="M 57.885 245.836875 
L 492.765 245.836875 
" clip-path="url(#p63505e9a6f)" style="fill: none; stroke-dasharray: 2.96,1.28; stroke-dashoffset: 0; stroke: #bfbfbf; stroke-width: 0.8"/>
     </g>
     <g id="line2d_34">
      <g>
       <use xlink:href="#md53bf37544" x="57.885" y="245.836875" style="stroke: #000000; stroke-width: 0.8"/>
      </g>
     </g>
     <g id="text_18">
      <!-- 0.5 -->
      <g transform="translate(28.620625 251.155781)scale(0.14 -0.14)">
       <use xlink:href="#DejaVuSans-30"/>
       <use xlink:href="#DejaVuSans-2e" x="63.623047"/>
       <use xlink:href="#DejaVuSans-35" x="95.410156"/>
      </g>
     </g>
    </g>
    <g id="ytick_7">
     <g id="line2d_35">
      <path d="M 57.885 206.30233 
L 492.765 206.30233 
" clip-path="url(#p63505e9a6f)" style="fill: none; stroke-dasharray: 2.96,1.28; stroke-dashoffset: 0; stroke: #bfbfbf; stroke-width: 0.8"/>
     </g>
     <g id="line2d_36">
      <g>
       <use xlink:href="#md53bf37544" x="57.885" y="206.30233" style="stroke: #000000; stroke-width: 0.8"/>
      </g>
     </g>
     <g id="text_19">
      <!-- 0.6 -->
      <g transform="translate(28.620625 211.621236)scale(0.14 -0.14)">
       <use xlink:href="#DejaVuSans-30"/>
       <use xlink:href="#DejaVuSans-2e" x="63.623047"/>
       <use xlink:href="#DejaVuSans-36" x="95.410156"/>
      </g>
     </g>
    </g>
    <g id="ytick_8">
     <g id="line2d_37">
      <path d="M 57.885 166.767784 
L 492.765 166.767784 
" clip-path="url(#p63505e9a6f)" style="fill: none; stroke-dasharray: 2.96,1.28; stroke-dashoffset: 0; stroke: #bfbfbf; stroke-width: 0.8"/>
     </g>
     <g id="line2d_38">
      <g>
       <use xlink:href="#md53bf37544" x="57.885" y="166.767784" style="stroke: #000000; stroke-width: 0.8"/>
      </g>
     </g>
     <g id="text_20">
      <!-- 0.7 -->
      <g transform="translate(28.620625 172.08669)scale(0.14 -0.14)">
       <use xlink:href="#DejaVuSans-30"/>
       <use xlink:href="#DejaVuSans-2e" x="63.623047"/>
       <use xlink:href="#DejaVuSans-37" x="95.410156"/>
      </g>
     </g>
    </g>
    <g id="ytick_9">
     <g id="line2d_39">
      <path d="M 57.885 127.233239 
L 492.765 127.233239 
" clip-path="url(#p63505e9a6f)" style="fill: none; stroke-dasharray: 2.96,1.28; stroke-dashoffset: 0; stroke: #bfbfbf; stroke-width: 0.8"/>
     </g>
     <g id="line2d_40">
      <g>
       <use xlink:href="#md53bf37544" x="57.885" y="127.233239" style="stroke: #000000; stroke-width: 0.8"/>
      </g>
     </g>
     <g id="text_21">
      <!-- 0.8 -->
      <g transform="translate(28.620625 132.552145)scale(0.14 -0.14)">
       <use xlink:href="#DejaVuSans-30"/>
       <use xlink:href="#DejaVuSans-2e" x="63.623047"/>
       <use xlink:href="#DejaVuSans-38" x="95.410156"/>
      </g>
     </g>
    </g>
    <g id="ytick_10">
     <g id="line2d_41">
      <path d="M 57.885 87.698693 
L 492.765 87.698693 
" clip-path="url(#p63505e9a6f)" style="fill: none; stroke-dasharray: 2.96,1.28; stroke-dashoffset: 0; stroke: #bfbfbf; stroke-width: 0.8"/>
     </g>
     <g id="line2d_42">
      <g>
       <use xlink:href="#md53bf37544" x="57.885" y="87.698693" style="stroke: #000000; stroke-width: 0.8"/>
      </g>
     </g>
     <g id="text_22">
      <!-- 0.9 -->
      <g transform="translate(28.620625 93.017599)scale(0.14 -0.14)">
       <use xlink:href="#DejaVuSans-30"/>
       <use xlink:href="#DejaVuSans-2e" x="63.623047"/>
       <use xlink:href="#DejaVuSans-39" x="95.410156"/>
      </g>
     </g>
    </g>
    <g id="ytick_11">
     <g id="line2d_43">
      <path d="M 57.885 48.164148 
L 492.765 48.164148 
" clip-path="url(#p63505e9a6f)" style="fill: none; stroke-dasharray: 2.96,1.28; stroke-dashoffset: 0; stroke: #bfbfbf; stroke-width: 0.8"/>
     </g>
     <g id="line2d_44">
      <g>
       <use xlink:href="#md53bf37544" x="57.885" y="48.164148" style="stroke: #000000; stroke-width: 0.8"/>
      </g>
     </g>
     <g id="text_23">
      <!-- 1.0 -->
      <g transform="translate(28.620625 53.483054)scale(0.14 -0.14)">
       <use xlink:href="#DejaVuSans-31"/>
       <use xlink:href="#DejaVuSans-2e" x="63.623047"/>
       <use xlink:href="#DejaVuSans-30" x="95.410156"/>
      </g>
     </g>
    </g>
    <g id="text_24">
     <!-- Arousal -->
     <g transform="translate(20.877188 279.405469)rotate(-90)scale(0.18 -0.18)">
      <defs>
       <path id="DejaVuSans-41" d="M 2188 4044 
L 1331 1722 
L 3047 1722 
L 2188 4044 
z
M 1831 4666 
L 2547 4666 
L 4325 0 
L 3669 0 
L 3244 1197 
L 1141 1197 
L 716 0 
L 50 0 
L 1831 4666 
z
" transform="scale(0.015625)"/>
       <path id="DejaVuSans-72" d="M 2631 2963 
Q 2534 3019 2420 3045 
Q 2306 3072 2169 3072 
Q 1681 3072 1420 2755 
Q 1159 2438 1159 1844 
L 1159 0 
L 581 0 
L 581 3500 
L 1159 3500 
L 1159 2956 
Q 1341 3275 1631 3429 
Q 1922 3584 2338 3584 
Q 2397 3584 2469 3576 
Q 2541 3569 2628 3553 
L 2631 2963 
z
" transform="scale(0.015625)"/>
       <path id="DejaVuSans-6f" d="M 1959 3097 
Q 1497 3097 1228 2736 
Q 959 2375 959 1747 
Q 959 1119 1226 758 
Q 1494 397 1959 397 
Q 2419 397 2687 759 
Q 2956 1122 2956 1747 
Q 2956 2369 2687 2733 
Q 2419 3097 1959 3097 
z
M 1959 3584 
Q 2709 3584 3137 3096 
Q 3566 2609 3566 1747 
Q 3566 888 3137 398 
Q 2709 -91 1959 -91 
Q 1206 -91 779 398 
Q 353 888 353 1747 
Q 353 2609 779 3096 
Q 1206 3584 1959 3584 
z
" transform="scale(0.015625)"/>
       <path id="DejaVuSans-75" d="M 544 1381 
L 544 3500 
L 1119 3500 
L 1119 1403 
Q 1119 906 1312 657 
Q 1506 409 1894 409 
Q 2359 409 2629 706 
Q 2900 1003 2900 1516 
L 2900 3500 
L 3475 3500 
L 3475 0 
L 2900 0 
L 2900 538 
Q 2691 219 2414 64 
Q 2138 -91 1772 -91 
Q 1169 -91 856 284 
Q 544 659 544 1381 
z
M 1991 3584 
L 1991 3584 
z
" transform="scale(0.015625)"/>
       <path id="DejaVuSans-73" d="M 2834 3397 
L 2834 2853 
Q 2591 2978 2328 3040 
Q 2066 3103 1784 3103 
Q 1356 3103 1142 2972 
Q 928 2841 928 2578 
Q 928 2378 1081 2264 
Q 1234 2150 1697 2047 
L 1894 2003 
Q 2506 1872 2764 1633 
Q 3022 1394 3022 966 
Q 3022 478 2636 193 
Q 2250 -91 1575 -91 
Q 1294 -91 989 -36 
Q 684 19 347 128 
L 347 722 
Q 666 556 975 473 
Q 1284 391 1588 391 
Q 1994 391 2212 530 
Q 2431 669 2431 922 
Q 2431 1156 2273 1281 
Q 2116 1406 1581 1522 
L 1381 1569 
Q 847 1681 609 1914 
Q 372 2147 372 2553 
Q 372 3047 722 3315 
Q 1072 3584 1716 3584 
Q 2034 3584 2315 3537 
Q 2597 3491 2834 3397 
z
" transform="scale(0.015625)"/>
      </defs>
      <use xlink:href="#DejaVuSans-41"/>
      <use xlink:href="#DejaVuSans-72" x="68.408203"/>
      <use xlink:href="#DejaVuSans-6f" x="107.271484"/>
      <use xlink:href="#DejaVuSans-75" x="168.453125"/>
      <use xlink:href="#DejaVuSans-73" x="231.832031"/>
      <use xlink:href="#DejaVuSans-61" x="283.931641"/>
      <use xlink:href="#DejaVuSans-6c" x="345.210938"/>
     </g>
    </g>
   </g>
   <g id="patch_3">
    <path d="M 57.885 463.276875 
L 57.885 28.396875 
" style="fill: none; stroke: #000000; stroke-width: 0.8; stroke-linejoin: miter; stroke-linecap: square"/>
   </g>
   <g id="patch_4">
    <path d="M 492.765 463.276875 
L 492.765 28.396875 
" style="fill: none; stroke: #000000; stroke-width: 0.8; stroke-linejoin: miter; stroke-linecap: square"/>
   </g>
   <g id="patch_5">
    <path d="M 57.885 463.276875 
L 492.765 463.276875 
" style="fill: none; stroke: #000000; stroke-width: 0.8; stroke-linejoin: miter; stroke-linecap: square"/>
   </g>
   <g id="patch_6">
    <path d="M 57.885 28.396875 
L 492.765 28.396875 
" style="fill: none; stroke: #000000; stroke-width: 0.8; stroke-linejoin: miter; stroke-linecap: square"/>
   </g>
   <g id="patch_7">
    <path d="M 460.839852 209.489022 
Q 460.790935 211.256112 460.742018 213.023202 
Q 458.974928 212.974286 457.207838 212.925369 
z
" style="fill: #c0c0c0; stroke: #c0c0c0; stroke-linecap: round"/>
   </g>
   <g id="patch_8">
    <path d="M 441.964451 110.677714 
Q 443.446325 111.641586 444.9282 112.605457 
Q 443.964329 114.087331 443.000458 115.569206 
z
" style="fill: #c0c0c0; stroke: #c0c0c0; stroke-linecap: round"/>
   </g>
   <g id="patch_9">
    <path d="M 156.708298 103.93293 
Q 151.41276 103.010505 146.117221 102.088081 
L 145.709659 104.42785 
Q 144.692311 102.981817 143.674964 101.535784 
Q 145.121324 100.518902 146.567685 99.50202 
L 146.160122 101.841789 
Q 151.455661 102.764214 156.751199 103.686639 
L 156.708298 103.93293 
z
" style="fill: #c0c0c0; stroke: #c0c0c0; stroke-linecap: round"/>
   </g>
   <g id="patch_10">
    <path d="M 146.673145 161.525308 
Q 145.174054 160.588437 143.674964 159.651566 
Q 144.611835 158.152475 145.548705 156.653384 
z
" style="fill: #c0c0c0; stroke: #c0c0c0; stroke-linecap: round"/>
   </g>
   <g id="patch_11">
    <path d="M 380.363244 265.83579 
Q 396.570789 263.834547 412.778335 261.833305 
L 412.48729 259.476205 
Q 413.88229 260.563449 415.277291 261.650693 
Q 414.188654 263.044607 413.100017 264.43852 
L 412.808972 262.081421 
Q 396.601426 264.082663 380.39388 266.083906 
L 380.363244 265.83579 
z
" style="fill: #c0c0c0; stroke: #c0c0c0; stroke-linecap: round"/>
   </g>
   <g id="patch_12">
    <path d="M 309.600368 275.110575 
Q 318.17718 267.391661 326.753992 259.672747 
L 325.165226 257.907401 
Q 326.930931 257.999992 328.696636 258.092584 
Q 328.603317 259.858251 328.509997 261.623918 
L 326.921231 259.858572 
Q 318.344419 267.577487 309.767606 275.296401 
L 309.600368 275.110575 
z
" style="fill: #c0c0c0; stroke: #c0c0c0; stroke-linecap: round"/>
   </g>
   <g id="patch_13">
    <path d="M 180.260626 182.860006 
Q 179.362995 181.337095 178.465364 179.814184 
Q 179.988275 178.916553 181.511186 178.018921 
z
" style="fill: #c0c0c0; stroke: #c0c0c0; stroke-linecap: round"/>
   </g>
   <g id="patch_14">
    <path d="M 316.661497 144.226939 
Q 344.160987 144.548247 371.660477 144.869555 
L 371.688225 142.494717 
Q 372.924795 143.759251 374.161364 145.023784 
Q 372.895586 146.25908 371.629809 147.494376 
L 371.657557 145.119538 
Q 344.158066 144.79823 316.658576 144.476922 
L 316.661497 144.226939 
z
" style="fill: #c0c0c0; stroke: #c0c0c0; stroke-linecap: round"/>
   </g>
   <g id="patch_15">
    <path d="M 435.132551 171.320735 
Q 433.507175 170.625641 431.8818 169.930548 
Q 432.576894 168.305172 433.271987 166.679797 
z
" style="fill: #c0c0c0; stroke: #c0c0c0; stroke-linecap: round"/>
   </g>
   <g id="patch_16">
    <path d="M 183.746632 241.505775 
Q 154.677884 245.538292 125.609135 249.570809 
L 125.935478 251.923281 
Q 124.526239 250.856805 123.117 249.79033 
Q 124.18272 248.380519 125.24844 246.970708 
L 125.574783 249.32318 
Q 154.643532 245.290664 183.71228 241.258147 
L 183.746632 241.505775 
z
" style="fill: #c0c0c0; stroke: #c0c0c0; stroke-linecap: round"/>
   </g>
   <g id="patch_17">
    <path d="M 154.069421 216.314424 
Q 133.897397 220.784805 113.725373 225.255186 
L 114.239236 227.573929 
Q 112.747936 226.624093 111.256636 225.674257 
Q 112.207027 224.183311 113.157419 222.692364 
L 113.671282 225.011107 
Q 133.843306 220.540727 154.01533 216.070346 
L 154.069421 216.314424 
z
" style="fill: #c0c0c0; stroke: #c0c0c0; stroke-linecap: round"/>
   </g>
   <g id="patch_18">
    <path d="M 101.382147 138.678598 
Q 99.796192 137.897737 98.210236 137.116875 
Q 98.991098 135.530919 99.77196 133.944964 
z
" style="fill: #c0c0c0; stroke: #c0c0c0; stroke-linecap: round"/>
   </g>
   <g id="patch_19">
    <path d="M 138.578536 172.282461 
Q 137.631846 172.399174 136.685157 172.515886 
L 136.975759 174.87304 
Q 135.581216 173.785503 134.186673 172.697966 
Q 135.275319 171.304288 136.363965 169.910611 
L 136.654567 172.267765 
Q 137.601257 172.151052 138.547946 172.034339 
L 138.578536 172.282461 
z
" style="fill: #c0c0c0; stroke: #c0c0c0; stroke-linecap: round"/>
   </g>
   <g id="patch_20">
    <path d="M 426.224889 174.377609 
Q 427.825233 173.977831 429.425576 173.578053 
L 428.849972 171.27386 
Q 430.365886 172.183586 431.8818 173.093311 
Q 430.971786 174.609052 430.061771 176.124793 
L 429.486166 173.8206 
Q 427.885823 174.220378 426.285479 174.620156 
L 426.224889 174.377609 
z
" style="fill: #c0c0c0; stroke: #c0c0c0; stroke-linecap: round"/>
   </g>
   <g id="patch_21">
    <path d="M 118.616653 103.891322 
Q 113.654533 107.038157 108.692414 110.184992 
L 109.964362 112.190677 
Q 108.238427 111.805049 106.512491 111.41942 
Q 106.899534 109.693801 107.286576 107.968182 
L 108.558525 109.973867 
Q 113.520644 106.827033 118.482764 103.680198 
L 118.616653 103.891322 
z
" style="fill: #c0c0c0; stroke: #c0c0c0; stroke-linecap: round"/>
   </g>
   <g id="patch_22">
    <path d="M 430.139666 278.083951 
Q 429.14331 274.836664 428.146955 271.589377 
L 425.876428 272.286036 
Q 426.704714 270.724147 427.533 269.162257 
Q 429.094742 269.990821 430.656484 270.819386 
L 428.385958 271.516045 
Q 429.382313 274.763331 430.378669 278.010618 
L 430.139666 278.083951 
z
" style="fill: #c0c0c0; stroke: #c0c0c0; stroke-linecap: round"/>
   </g>
   <g id="patch_23">
    <path d="M 101.947651 191.529514 
Q 103.637053 191.009013 105.326455 190.488511 
Q 105.846956 192.177913 106.367457 193.867315 
z
" style="fill: #c0c0c0; stroke: #c0c0c0; stroke-linecap: round"/>
   </g>
   <g id="patch_24">
    <path d="M 468.615991 118.015418 
Q 466.853405 117.880183 465.090818 117.744948 
Q 465.226053 115.982361 465.361289 114.219775 
z
" style="fill: #c0c0c0; stroke: #c0c0c0; stroke-linecap: round"/>
   </g>
   <g id="patch_25">
    <path d="M 473.645 232.518931 
Q 473.495545 234.182108 473.346089 235.845285 
L 475.711558 236.057849 
Q 474.354643 237.19158 472.997727 238.325311 
Q 471.864676 236.967828 470.731624 235.610346 
L 473.097093 235.82291 
Q 473.246548 234.159733 473.396003 232.496556 
L 473.645 232.518931 
z
" style="fill: #c0c0c0; stroke: #c0c0c0; stroke-linecap: round"/>
   </g>
   <g id="patch_26">
    <path d="M 174.218207 89.115548 
Q 159.360845 85.77686 144.503482 82.438172 
L 143.982767 84.755386 
Q 143.038174 83.261949 142.093582 81.768511 
Q 143.586296 80.822776 145.079009 79.877041 
L 144.558294 82.194255 
Q 159.415657 85.532943 174.273019 88.871631 
L 174.218207 89.115548 
z
" style="fill: #c0c0c0; stroke: #c0c0c0; stroke-linecap: round"/>
   </g>
   <g id="patch_27">
    <path d="M 266.250488 372.308758 
Q 264.65989 371.537398 263.069291 370.766039 
Q 263.840651 369.17544 264.61201 367.584841 
z
" style="fill: #c0c0c0; stroke: #c0c0c0; stroke-linecap: round"/>
   </g>
   <g id="patch_28">
    <path d="M 433.775644 232.873864 
Q 442.235363 227.154592 450.695082 221.43532 
L 449.364903 219.467771 
Q 451.100006 219.803596 452.835109 220.13942 
Q 452.500195 221.8747 452.165281 223.609979 
L 450.835101 221.64243 
Q 442.375382 227.361702 433.915663 233.080974 
L 433.775644 232.873864 
z
" style="fill: #c0c0c0; stroke: #c0c0c0; stroke-linecap: round"/>
   </g>
   <g id="patch_29">
    <path d="M 346.120388 172.863155 
Q 355.151826 181.931913 364.183264 191.000671 
L 365.866101 189.324759 
Q 365.862605 191.092671 365.859109 192.860584 
Q 364.091197 192.85679 362.323285 192.852995 
L 364.006123 191.177083 
Q 354.974685 182.108325 345.943247 173.039566 
L 346.120388 172.863155 
z
" style="fill: #c0c0c0; stroke: #c0c0c0; stroke-linecap: round"/>
   </g>
   <g id="patch_30">
    <path d="M 329.083054 223.292207 
Q 313.993522 232.015337 298.90399 240.738467 
L 300.092633 242.794617 
Q 298.383144 242.339019 296.673655 241.88342 
Q 297.131941 240.17465 297.590227 238.46588 
L 298.77887 240.52203 
Q 313.868402 231.7989 328.957933 223.07577 
L 329.083054 223.292207 
z
" style="fill: #c0c0c0; stroke: #c0c0c0; stroke-linecap: round"/>
   </g>
   <g id="patch_31">
    <path d="M 414.640573 334.828007 
Q 412.982205 334.215787 411.323836 333.603566 
Q 411.936057 331.945197 412.548278 330.286829 
z
" style="fill: #c0c0c0; stroke: #c0c0c0; stroke-linecap: round"/>
   </g>
   <g id="patch_32">
    <path d="M 115.015163 178.549319 
Q 116.694009 177.995715 118.372855 177.442111 
Q 118.926458 179.120957 119.480062 180.799803 
z
" style="fill: #c0c0c0; stroke: #c0c0c0; stroke-linecap: round"/>
   </g>
   <g id="patch_33">
    <path d="M 101.332938 331.308042 
Q 99.771587 330.479077 98.210236 329.650111 
Q 99.039202 328.08876 99.868167 326.52741 
z
" style="fill: #c0c0c0; stroke: #c0c0c0; stroke-linecap: round"/>
   </g>
   <g id="patch_34">
    <path d="M 426.706885 99.231495 
Q 425.143215 98.406912 423.579545 97.58233 
Q 424.404128 96.01866 425.228711 94.45499 
z
" style="fill: #c0c0c0; stroke: #c0c0c0; stroke-linecap: round"/>
   </g>
   <g id="text_25">
    <!-- Emotion Labels -->
    <g transform="translate(198.625 22.396875)scale(0.2 -0.2)">
     <defs>
      <path id="DejaVuSans-45" d="M 628 4666 
L 3578 4666 
L 3578 4134 
L 1259 4134 
L 1259 2753 
L 3481 2753 
L 3481 2222 
L 1259 2222 
L 1259 531 
L 3634 531 
L 3634 0 
L 628 0 
L 628 4666 
z
" transform="scale(0.015625)"/>
      <path id="DejaVuSans-6d" d="M 3328 2828 
Q 3544 3216 3844 3400 
Q 4144 3584 4550 3584 
Q 5097 3584 5394 3201 
Q 5691 2819 5691 2113 
L 5691 0 
L 5113 0 
L 5113 2094 
Q 5113 2597 4934 2840 
Q 4756 3084 4391 3084 
Q 3944 3084 3684 2787 
Q 3425 2491 3425 1978 
L 3425 0 
L 2847 0 
L 2847 2094 
Q 2847 2600 2669 2842 
Q 2491 3084 2119 3084 
Q 1678 3084 1418 2786 
Q 1159 2488 1159 1978 
L 1159 0 
L 581 0 
L 581 3500 
L 1159 3500 
L 1159 2956 
Q 1356 3278 1631 3431 
Q 1906 3584 2284 3584 
Q 2666 3584 2933 3390 
Q 3200 3197 3328 2828 
z
" transform="scale(0.015625)"/>
      <path id="DejaVuSans-74" d="M 1172 4494 
L 1172 3500 
L 2356 3500 
L 2356 3053 
L 1172 3053 
L 1172 1153 
Q 1172 725 1289 603 
Q 1406 481 1766 481 
L 2356 481 
L 2356 0 
L 1766 0 
Q 1100 0 847 248 
Q 594 497 594 1153 
L 594 3053 
L 172 3053 
L 172 3500 
L 594 3500 
L 594 4494 
L 1172 4494 
z
" transform="scale(0.015625)"/>
      <path id="DejaVuSans-69" d="M 603 3500 
L 1178 3500 
L 1178 0 
L 603 0 
L 603 3500 
z
M 603 4863 
L 1178 4863 
L 1178 4134 
L 603 4134 
L 603 4863 
z
" transform="scale(0.015625)"/>
      <path id="DejaVuSans-20" transform="scale(0.015625)"/>
      <path id="DejaVuSans-4c" d="M 628 4666 
L 1259 4666 
L 1259 531 
L 3531 531 
L 3531 0 
L 628 0 
L 628 4666 
z
" transform="scale(0.015625)"/>
      <path id="DejaVuSans-62" d="M 3116 1747 
Q 3116 2381 2855 2742 
Q 2594 3103 2138 3103 
Q 1681 3103 1420 2742 
Q 1159 2381 1159 1747 
Q 1159 1113 1420 752 
Q 1681 391 2138 391 
Q 2594 391 2855 752 
Q 3116 1113 3116 1747 
z
M 1159 2969 
Q 1341 3281 1617 3432 
Q 1894 3584 2278 3584 
Q 2916 3584 3314 3078 
Q 3713 2572 3713 1747 
Q 3713 922 3314 415 
Q 2916 -91 2278 -91 
Q 1894 -91 1617 61 
Q 1341 213 1159 525 
L 1159 0 
L 581 0 
L 581 4863 
L 1159 4863 
L 1159 2969 
z
" transform="scale(0.015625)"/>
     </defs>
     <use xlink:href="#DejaVuSans-45"/>
     <use xlink:href="#DejaVuSans-6d" x="63.183594"/>
     <use xlink:href="#DejaVuSans-6f" x="160.595703"/>
     <use xlink:href="#DejaVuSans-74" x="221.777344"/>
     <use xlink:href="#DejaVuSans-69" x="260.986328"/>
     <use xlink:href="#DejaVuSans-6f" x="288.769531"/>
     <use xlink:href="#DejaVuSans-6e" x="349.951172"/>
     <use xlink:href="#DejaVuSans-20" x="413.330078"/>
     <use xlink:href="#DejaVuSans-4c" x="445.117188"/>
     <use xlink:href="#DejaVuSans-61" x="500.830078"/>
     <use xlink:href="#DejaVuSans-62" x="562.109375"/>
     <use xlink:href="#DejaVuSans-65" x="625.585938"/>
     <use xlink:href="#DejaVuSans-6c" x="687.109375"/>
     <use xlink:href="#DejaVuSans-73" x="714.892578"/>
    </g>
   </g>
   <g id="text_26">
    <!-- Admiration -->
    <g transform="translate(425.623695 209.465473)scale(0.12 -0.12)">
     <defs>
      <path id="DejaVuSans-64" d="M 2906 2969 
L 2906 4863 
L 3481 4863 
L 3481 0 
L 2906 0 
L 2906 525 
Q 2725 213 2448 61 
Q 2172 -91 1784 -91 
Q 1150 -91 751 415 
Q 353 922 353 1747 
Q 353 2572 751 3078 
Q 1150 3584 1784 3584 
Q 2172 3584 2448 3432 
Q 2725 3281 2906 2969 
z
M 947 1747 
Q 947 1113 1208 752 
Q 1469 391 1925 391 
Q 2381 391 2643 752 
Q 2906 1113 2906 1747 
Q 2906 2381 2643 2742 
Q 2381 3103 1925 3103 
Q 1469 3103 1208 2742 
Q 947 2381 947 1747 
z
" transform="scale(0.015625)"/>
     </defs>
     <use xlink:href="#DejaVuSans-41"/>
     <use xlink:href="#DejaVuSans-64" x="66.658203"/>
     <use xlink:href="#DejaVuSans-6d" x="130.134766"/>
     <use xlink:href="#DejaVuSans-69" x="227.546875"/>
     <use xlink:href="#DejaVuSans-72" x="255.330078"/>
     <use xlink:href="#DejaVuSans-61" x="296.443359"/>
     <use xlink:href="#DejaVuSans-74" x="357.722656"/>
     <use xlink:href="#DejaVuSans-69" x="396.931641"/>
     <use xlink:href="#DejaVuSans-6f" x="424.714844"/>
     <use xlink:href="#DejaVuSans-6e" x="485.896484"/>
    </g>
   </g>
   <g id="text_27">
    <!-- Amusement -->
    <g transform="translate(370.165556 122.198732)scale(0.12 -0.12)">
     <use xlink:href="#DejaVuSans-41"/>
     <use xlink:href="#DejaVuSans-6d" x="68.408203"/>
     <use xlink:href="#DejaVuSans-75" x="165.820312"/>
     <use xlink:href="#DejaVuSans-73" x="229.199219"/>
     <use xlink:href="#DejaVuSans-65" x="281.298828"/>
     <use xlink:href="#DejaVuSans-6d" x="342.822266"/>
     <use xlink:href="#DejaVuSans-65" x="440.234375"/>
     <use xlink:href="#DejaVuSans-6e" x="501.757812"/>
     <use xlink:href="#DejaVuSans-74" x="565.136719"/>
    </g>
   </g>
   <g id="text_28">
    <!-- Anger -->
    <g transform="translate(156.731602 107.2727)scale(0.12 -0.12)">
     <defs>
      <path id="DejaVuSans-67" d="M 2906 1791 
Q 2906 2416 2648 2759 
Q 2391 3103 1925 3103 
Q 1463 3103 1205 2759 
Q 947 2416 947 1791 
Q 947 1169 1205 825 
Q 1463 481 1925 481 
Q 2391 481 2648 825 
Q 2906 1169 2906 1791 
z
M 3481 434 
Q 3481 -459 3084 -895 
Q 2688 -1331 1869 -1331 
Q 1566 -1331 1297 -1286 
Q 1028 -1241 775 -1147 
L 775 -588 
Q 1028 -725 1275 -790 
Q 1522 -856 1778 -856 
Q 2344 -856 2625 -561 
Q 2906 -266 2906 331 
L 2906 616 
Q 2728 306 2450 153 
Q 2172 0 1784 0 
Q 1141 0 747 490 
Q 353 981 353 1791 
Q 353 2603 747 3093 
Q 1141 3584 1784 3584 
Q 2172 3584 2450 3431 
Q 2728 3278 2906 2969 
L 2906 3500 
L 3481 3500 
L 3481 434 
z
" transform="scale(0.015625)"/>
     </defs>
     <use xlink:href="#DejaVuSans-41"/>
     <use xlink:href="#DejaVuSans-6e" x="68.408203"/>
     <use xlink:href="#DejaVuSans-67" x="131.787109"/>
     <use xlink:href="#DejaVuSans-65" x="195.263672"/>
     <use xlink:href="#DejaVuSans-72" x="256.787109"/>
    </g>
   </g>
   <g id="text_29">
    <!-- Annoyance -->
    <g transform="translate(145.733566 156.680791)scale(0.12 -0.12)">
     <defs>
      <path id="DejaVuSans-79" d="M 2059 -325 
Q 1816 -950 1584 -1140 
Q 1353 -1331 966 -1331 
L 506 -1331 
L 506 -850 
L 844 -850 
Q 1081 -850 1212 -737 
Q 1344 -625 1503 -206 
L 1606 56 
L 191 3500 
L 800 3500 
L 1894 763 
L 2988 3500 
L 3597 3500 
L 2059 -325 
z
" transform="scale(0.015625)"/>
     </defs>
     <use xlink:href="#DejaVuSans-41"/>
     <use xlink:href="#DejaVuSans-6e" x="68.408203"/>
     <use xlink:href="#DejaVuSans-6e" x="131.787109"/>
     <use xlink:href="#DejaVuSans-6f" x="195.166016"/>
     <use xlink:href="#DejaVuSans-79" x="256.347656"/>
     <use xlink:href="#DejaVuSans-61" x="315.527344"/>
     <use xlink:href="#DejaVuSans-6e" x="376.806641"/>
     <use xlink:href="#DejaVuSans-63" x="440.185547"/>
     <use xlink:href="#DejaVuSans-65" x="495.166016"/>
    </g>
   </g>
   <g id="text_30">
    <!-- Approval -->
    <g transform="translate(342.981847 275.078109)scale(0.12 -0.12)">
     <defs>
      <path id="DejaVuSans-70" d="M 1159 525 
L 1159 -1331 
L 581 -1331 
L 581 3500 
L 1159 3500 
L 1159 2969 
Q 1341 3281 1617 3432 
Q 1894 3584 2278 3584 
Q 2916 3584 3314 3078 
Q 3713 2572 3713 1747 
Q 3713 922 3314 415 
Q 2916 -91 2278 -91 
Q 1894 -91 1617 61 
Q 1341 213 1159 525 
z
M 3116 1747 
Q 3116 2381 2855 2742 
Q 2594 3103 2138 3103 
Q 1681 3103 1420 2742 
Q 1159 2381 1159 1747 
Q 1159 1113 1420 752 
Q 1681 391 2138 391 
Q 2594 391 2855 752 
Q 3116 1113 3116 1747 
z
" transform="scale(0.015625)"/>
      <path id="DejaVuSans-76" d="M 191 3500 
L 800 3500 
L 1894 563 
L 2988 3500 
L 3597 3500 
L 2284 0 
L 1503 0 
L 191 3500 
z
" transform="scale(0.015625)"/>
     </defs>
     <use xlink:href="#DejaVuSans-41"/>
     <use xlink:href="#DejaVuSans-70" x="68.408203"/>
     <use xlink:href="#DejaVuSans-70" x="131.884766"/>
     <use xlink:href="#DejaVuSans-72" x="195.361328"/>
     <use xlink:href="#DejaVuSans-6f" x="234.224609"/>
     <use xlink:href="#DejaVuSans-76" x="295.40625"/>
     <use xlink:href="#DejaVuSans-61" x="354.585938"/>
     <use xlink:href="#DejaVuSans-6c" x="415.865234"/>
    </g>
   </g>
   <g id="text_31">
    <!-- Caring -->
    <g transform="translate(284.222058 284.321061)scale(0.12 -0.12)">
     <defs>
      <path id="DejaVuSans-43" d="M 4122 4306 
L 4122 3641 
Q 3803 3938 3442 4084 
Q 3081 4231 2675 4231 
Q 1875 4231 1450 3742 
Q 1025 3253 1025 2328 
Q 1025 1406 1450 917 
Q 1875 428 2675 428 
Q 3081 428 3442 575 
Q 3803 722 4122 1019 
L 4122 359 
Q 3791 134 3420 21 
Q 3050 -91 2638 -91 
Q 1578 -91 968 557 
Q 359 1206 359 2328 
Q 359 3453 968 4101 
Q 1578 4750 2638 4750 
Q 3056 4750 3426 4639 
Q 3797 4528 4122 4306 
z
" transform="scale(0.015625)"/>
     </defs>
     <use xlink:href="#DejaVuSans-43"/>
     <use xlink:href="#DejaVuSans-61" x="69.824219"/>
     <use xlink:href="#DejaVuSans-72" x="131.103516"/>
     <use xlink:href="#DejaVuSans-69" x="172.216797"/>
     <use xlink:href="#DejaVuSans-6e" x="200"/>
     <use xlink:href="#DejaVuSans-67" x="263.378906"/>
    </g>
   </g>
   <g id="text_32">
    <!-- Confusion -->
    <g transform="translate(180.304638 189.407459)scale(0.12 -0.12)">
     <defs>
      <path id="DejaVuSans-66" d="M 2375 4863 
L 2375 4384 
L 1825 4384 
Q 1516 4384 1395 4259 
Q 1275 4134 1275 3809 
L 1275 3500 
L 2222 3500 
L 2222 3053 
L 1275 3053 
L 1275 0 
L 697 0 
L 697 3053 
L 147 3053 
L 147 3500 
L 697 3500 
L 697 3744 
Q 697 4328 969 4595 
Q 1241 4863 1831 4863 
L 2375 4863 
z
" transform="scale(0.015625)"/>
     </defs>
     <use xlink:href="#DejaVuSans-43"/>
     <use xlink:href="#DejaVuSans-6f" x="69.824219"/>
     <use xlink:href="#DejaVuSans-6e" x="131.005859"/>
     <use xlink:href="#DejaVuSans-66" x="194.384766"/>
     <use xlink:href="#DejaVuSans-75" x="229.589844"/>
     <use xlink:href="#DejaVuSans-73" x="292.96875"/>
     <use xlink:href="#DejaVuSans-69" x="345.068359"/>
     <use xlink:href="#DejaVuSans-6f" x="372.851562"/>
     <use xlink:href="#DejaVuSans-6e" x="434.033203"/>
    </g>
   </g>
   <g id="text_33">
    <!-- Curiosity -->
    <g transform="translate(263.674053 143.583981)scale(0.12 -0.12)">
     <use xlink:href="#DejaVuSans-43"/>
     <use xlink:href="#DejaVuSans-75" x="69.824219"/>
     <use xlink:href="#DejaVuSans-72" x="133.203125"/>
     <use xlink:href="#DejaVuSans-69" x="174.316406"/>
     <use xlink:href="#DejaVuSans-6f" x="202.099609"/>
     <use xlink:href="#DejaVuSans-73" x="263.28125"/>
     <use xlink:href="#DejaVuSans-69" x="315.380859"/>
     <use xlink:href="#DejaVuSans-74" x="343.164062"/>
     <use xlink:href="#DejaVuSans-79" x="382.373047"/>
    </g>
   </g>
   <g id="text_34">
    <!-- Desire -->
    <g transform="translate(433.066939 166.959773)scale(0.12 -0.12)">
     <defs>
      <path id="DejaVuSans-44" d="M 1259 4147 
L 1259 519 
L 2022 519 
Q 2988 519 3436 956 
Q 3884 1394 3884 2338 
Q 3884 3275 3436 3711 
Q 2988 4147 2022 4147 
L 1259 4147 
z
M 628 4666 
L 1925 4666 
Q 3281 4666 3915 4102 
Q 4550 3538 4550 2338 
Q 4550 1131 3912 565 
Q 3275 0 1925 0 
L 628 0 
L 628 4666 
z
" transform="scale(0.015625)"/>
     </defs>
     <use xlink:href="#DejaVuSans-44"/>
     <use xlink:href="#DejaVuSans-65" x="77.001953"/>
     <use xlink:href="#DejaVuSans-73" x="138.525391"/>
     <use xlink:href="#DejaVuSans-69" x="190.625"/>
     <use xlink:href="#DejaVuSans-72" x="218.408203"/>
     <use xlink:href="#DejaVuSans-65" x="257.271484"/>
    </g>
   </g>
   <g id="text_35">
    <!-- Disappointment -->
    <g transform="translate(183.72819 240.168734)scale(0.12 -0.12)">
     <use xlink:href="#DejaVuSans-44"/>
     <use xlink:href="#DejaVuSans-69" x="77.001953"/>
     <use xlink:href="#DejaVuSans-73" x="104.785156"/>
     <use xlink:href="#DejaVuSans-61" x="156.884766"/>
     <use xlink:href="#DejaVuSans-70" x="218.164062"/>
     <use xlink:href="#DejaVuSans-70" x="281.640625"/>
     <use xlink:href="#DejaVuSans-6f" x="345.117188"/>
     <use xlink:href="#DejaVuSans-69" x="406.298828"/>
     <use xlink:href="#DejaVuSans-6e" x="434.082031"/>
     <use xlink:href="#DejaVuSans-74" x="497.460938"/>
     <use xlink:href="#DejaVuSans-6d" x="536.669922"/>
     <use xlink:href="#DejaVuSans-65" x="634.082031"/>
     <use xlink:href="#DejaVuSans-6e" x="695.605469"/>
     <use xlink:href="#DejaVuSans-74" x="758.984375"/>
    </g>
   </g>
   <g id="text_36">
    <!-- Disapproval -->
    <g transform="translate(109.866595 223.19976)scale(0.12 -0.12)">
     <use xlink:href="#DejaVuSans-44"/>
     <use xlink:href="#DejaVuSans-69" x="77.001953"/>
     <use xlink:href="#DejaVuSans-73" x="104.785156"/>
     <use xlink:href="#DejaVuSans-61" x="156.884766"/>
     <use xlink:href="#DejaVuSans-70" x="218.164062"/>
     <use xlink:href="#DejaVuSans-70" x="281.640625"/>
     <use xlink:href="#DejaVuSans-72" x="345.117188"/>
     <use xlink:href="#DejaVuSans-6f" x="383.980469"/>
     <use xlink:href="#DejaVuSans-76" x="445.162109"/>
     <use xlink:href="#DejaVuSans-61" x="504.341797"/>
     <use xlink:href="#DejaVuSans-6c" x="565.621094"/>
    </g>
   </g>
   <g id="text_37">
    <!-- Disgust -->
    <g transform="translate(99.607084 134.1461)scale(0.12 -0.12)">
     <use xlink:href="#DejaVuSans-44"/>
     <use xlink:href="#DejaVuSans-69" x="77.001953"/>
     <use xlink:href="#DejaVuSans-73" x="104.785156"/>
     <use xlink:href="#DejaVuSans-67" x="156.884766"/>
     <use xlink:href="#DejaVuSans-75" x="220.361328"/>
     <use xlink:href="#DejaVuSans-73" x="283.740234"/>
     <use xlink:href="#DejaVuSans-74" x="335.839844"/>
    </g>
   </g>
   <g id="text_38">
    <!-- Embarrassment -->
    <g transform="translate(126.633092 169.663024)scale(0.12 -0.12)">
     <use xlink:href="#DejaVuSans-45"/>
     <use xlink:href="#DejaVuSans-6d" x="63.183594"/>
     <use xlink:href="#DejaVuSans-62" x="160.595703"/>
     <use xlink:href="#DejaVuSans-61" x="224.072266"/>
     <use xlink:href="#DejaVuSans-72" x="285.351562"/>
     <use xlink:href="#DejaVuSans-72" x="324.714844"/>
     <use xlink:href="#DejaVuSans-61" x="365.828125"/>
     <use xlink:href="#DejaVuSans-73" x="427.107422"/>
     <use xlink:href="#DejaVuSans-73" x="479.207031"/>
     <use xlink:href="#DejaVuSans-6d" x="531.306641"/>
     <use xlink:href="#DejaVuSans-65" x="628.71875"/>
     <use xlink:href="#DejaVuSans-6e" x="690.242188"/>
     <use xlink:href="#DejaVuSans-74" x="753.621094"/>
    </g>
   </g>
   <g id="text_39">
    <!-- Excitement -->
    <g transform="translate(358.378353 182.592073)scale(0.12 -0.12)">
     <defs>
      <path id="DejaVuSans-78" d="M 3513 3500 
L 2247 1797 
L 3578 0 
L 2900 0 
L 1881 1375 
L 863 0 
L 184 0 
L 1544 1831 
L 300 3500 
L 978 3500 
L 1906 2253 
L 2834 3500 
L 3513 3500 
z
" transform="scale(0.015625)"/>
     </defs>
     <use xlink:href="#DejaVuSans-45"/>
     <use xlink:href="#DejaVuSans-78" x="63.183594"/>
     <use xlink:href="#DejaVuSans-63" x="120.613281"/>
     <use xlink:href="#DejaVuSans-69" x="175.59375"/>
     <use xlink:href="#DejaVuSans-74" x="203.376953"/>
     <use xlink:href="#DejaVuSans-65" x="242.585938"/>
     <use xlink:href="#DejaVuSans-6d" x="304.109375"/>
     <use xlink:href="#DejaVuSans-65" x="401.521484"/>
     <use xlink:href="#DejaVuSans-6e" x="463.044922"/>
     <use xlink:href="#DejaVuSans-74" x="526.423828"/>
    </g>
   </g>
   <g id="text_40">
    <!-- Fear -->
    <g transform="translate(102.54176 110.793135)scale(0.12 -0.12)">
     <defs>
      <path id="DejaVuSans-46" d="M 628 4666 
L 3309 4666 
L 3309 4134 
L 1259 4134 
L 1259 2759 
L 3109 2759 
L 3109 2228 
L 1259 2228 
L 1259 0 
L 628 0 
L 628 4666 
z
" transform="scale(0.015625)"/>
     </defs>
     <use xlink:href="#DejaVuSans-46"/>
     <use xlink:href="#DejaVuSans-65" x="52.019531"/>
     <use xlink:href="#DejaVuSans-61" x="113.542969"/>
     <use xlink:href="#DejaVuSans-72" x="174.822266"/>
    </g>
   </g>
   <g id="text_41">
    <!-- Gratitude -->
    <g transform="translate(411.489332 287.167009)scale(0.12 -0.12)">
     <defs>
      <path id="DejaVuSans-47" d="M 3809 666 
L 3809 1919 
L 2778 1919 
L 2778 2438 
L 4434 2438 
L 4434 434 
Q 4069 175 3628 42 
Q 3188 -91 2688 -91 
Q 1594 -91 976 548 
Q 359 1188 359 2328 
Q 359 3472 976 4111 
Q 1594 4750 2688 4750 
Q 3144 4750 3555 4637 
Q 3966 4525 4313 4306 
L 4313 3634 
Q 3963 3931 3569 4081 
Q 3175 4231 2741 4231 
Q 1884 4231 1454 3753 
Q 1025 3275 1025 2328 
Q 1025 1384 1454 906 
Q 1884 428 2741 428 
Q 3075 428 3337 486 
Q 3600 544 3809 666 
z
" transform="scale(0.015625)"/>
     </defs>
     <use xlink:href="#DejaVuSans-47"/>
     <use xlink:href="#DejaVuSans-72" x="77.490234"/>
     <use xlink:href="#DejaVuSans-61" x="118.603516"/>
     <use xlink:href="#DejaVuSans-74" x="179.882812"/>
     <use xlink:href="#DejaVuSans-69" x="219.091797"/>
     <use xlink:href="#DejaVuSans-74" x="246.875"/>
     <use xlink:href="#DejaVuSans-75" x="286.083984"/>
     <use xlink:href="#DejaVuSans-64" x="349.462891"/>
     <use xlink:href="#DejaVuSans-65" x="412.939453"/>
    </g>
   </g>
   <g id="text_42">
    <!-- Grief -->
    <g transform="translate(85.594676 199.831093)scale(0.12 -0.12)">
     <use xlink:href="#DejaVuSans-47"/>
     <use xlink:href="#DejaVuSans-72" x="77.490234"/>
     <use xlink:href="#DejaVuSans-69" x="118.603516"/>
     <use xlink:href="#DejaVuSans-65" x="146.386719"/>
     <use xlink:href="#DejaVuSans-66" x="207.910156"/>
    </g>
   </g>
   <g id="text_43">
    <!-- Joy -->
    <g transform="translate(465.644939 114.774173)scale(0.12 -0.12)">
     <defs>
      <path id="DejaVuSans-4a" d="M 628 4666 
L 1259 4666 
L 1259 325 
Q 1259 -519 939 -900 
Q 619 -1281 -91 -1281 
L -331 -1281 
L -331 -750 
L -134 -750 
Q 284 -750 456 -515 
Q 628 -281 628 325 
L 628 4666 
z
" transform="scale(0.015625)"/>
     </defs>
     <use xlink:href="#DejaVuSans-4a"/>
     <use xlink:href="#DejaVuSans-6f" x="29.492188"/>
     <use xlink:href="#DejaVuSans-79" x="90.673828"/>
    </g>
   </g>
   <g id="text_44">
    <!-- Love -->
    <g transform="translate(460.222258 230.008727)scale(0.12 -0.12)">
     <use xlink:href="#DejaVuSans-4c"/>
     <use xlink:href="#DejaVuSans-6f" x="53.962891"/>
     <use xlink:href="#DejaVuSans-76" x="115.144531"/>
     <use xlink:href="#DejaVuSans-65" x="174.324219"/>
    </g>
   </g>
   <g id="text_45">
    <!-- Nervousness -->
    <g transform="translate(126.606575 88.608714)scale(0.12 -0.12)">
     <defs>
      <path id="DejaVuSans-4e" d="M 628 4666 
L 1478 4666 
L 3547 763 
L 3547 4666 
L 4159 4666 
L 4159 0 
L 3309 0 
L 1241 3903 
L 1241 0 
L 628 0 
L 628 4666 
z
" transform="scale(0.015625)"/>
     </defs>
     <use xlink:href="#DejaVuSans-4e"/>
     <use xlink:href="#DejaVuSans-65" x="74.804688"/>
     <use xlink:href="#DejaVuSans-72" x="136.328125"/>
     <use xlink:href="#DejaVuSans-76" x="177.441406"/>
     <use xlink:href="#DejaVuSans-6f" x="236.621094"/>
     <use xlink:href="#DejaVuSans-75" x="297.802734"/>
     <use xlink:href="#DejaVuSans-73" x="361.181641"/>
     <use xlink:href="#DejaVuSans-6e" x="413.28125"/>
     <use xlink:href="#DejaVuSans-65" x="476.660156"/>
     <use xlink:href="#DejaVuSans-73" x="538.183594"/>
     <use xlink:href="#DejaVuSans-73" x="590.283203"/>
    </g>
   </g>
   <g id="text_46">
    <!-- Neutral -->
    <g transform="translate(264.439202 367.795264)scale(0.12 -0.12)">
     <use xlink:href="#DejaVuSans-4e"/>
     <use xlink:href="#DejaVuSans-65" x="74.804688"/>
     <use xlink:href="#DejaVuSans-75" x="136.328125"/>
     <use xlink:href="#DejaVuSans-74" x="199.707031"/>
     <use xlink:href="#DejaVuSans-72" x="238.916016"/>
     <use xlink:href="#DejaVuSans-61" x="280.029297"/>
     <use xlink:href="#DejaVuSans-6c" x="341.308594"/>
    </g>
   </g>
   <g id="text_47">
    <!-- Optimism -->
    <g transform="translate(397.662037 242.097627)scale(0.12 -0.12)">
     <defs>
      <path id="DejaVuSans-4f" d="M 2522 4238 
Q 1834 4238 1429 3725 
Q 1025 3213 1025 2328 
Q 1025 1447 1429 934 
Q 1834 422 2522 422 
Q 3209 422 3611 934 
Q 4013 1447 4013 2328 
Q 4013 3213 3611 3725 
Q 3209 4238 2522 4238 
z
M 2522 4750 
Q 3503 4750 4090 4092 
Q 4678 3434 4678 2328 
Q 4678 1225 4090 567 
Q 3503 -91 2522 -91 
Q 1538 -91 948 565 
Q 359 1222 359 2328 
Q 359 3434 948 4092 
Q 1538 4750 2522 4750 
z
" transform="scale(0.015625)"/>
     </defs>
     <use xlink:href="#DejaVuSans-4f"/>
     <use xlink:href="#DejaVuSans-70" x="78.710938"/>
     <use xlink:href="#DejaVuSans-74" x="142.1875"/>
     <use xlink:href="#DejaVuSans-69" x="181.396484"/>
     <use xlink:href="#DejaVuSans-6d" x="209.179688"/>
     <use xlink:href="#DejaVuSans-69" x="306.591797"/>
     <use xlink:href="#DejaVuSans-73" x="334.375"/>
     <use xlink:href="#DejaVuSans-6d" x="386.474609"/>
    </g>
   </g>
   <g id="text_48">
    <!-- Pride -->
    <g transform="translate(324.899821 170.457381)scale(0.12 -0.12)">
     <defs>
      <path id="DejaVuSans-50" d="M 1259 4147 
L 1259 2394 
L 2053 2394 
Q 2494 2394 2734 2622 
Q 2975 2850 2975 3272 
Q 2975 3691 2734 3919 
Q 2494 4147 2053 4147 
L 1259 4147 
z
M 628 4666 
L 2053 4666 
Q 2838 4666 3239 4311 
Q 3641 3956 3641 3272 
Q 3641 2581 3239 2228 
Q 2838 1875 2053 1875 
L 1259 1875 
L 1259 0 
L 628 0 
L 628 4666 
z
" transform="scale(0.015625)"/>
     </defs>
     <use xlink:href="#DejaVuSans-50"/>
     <use xlink:href="#DejaVuSans-72" x="58.552734"/>
     <use xlink:href="#DejaVuSans-69" x="99.666016"/>
     <use xlink:href="#DejaVuSans-64" x="127.449219"/>
     <use xlink:href="#DejaVuSans-65" x="190.925781"/>
    </g>
   </g>
   <g id="text_49">
    <!-- Realization -->
    <g transform="translate(304.747895 220.687584)scale(0.12 -0.12)">
     <defs>
      <path id="DejaVuSans-52" d="M 2841 2188 
Q 3044 2119 3236 1894 
Q 3428 1669 3622 1275 
L 4263 0 
L 3584 0 
L 2988 1197 
Q 2756 1666 2539 1819 
Q 2322 1972 1947 1972 
L 1259 1972 
L 1259 0 
L 628 0 
L 628 4666 
L 2053 4666 
Q 2853 4666 3247 4331 
Q 3641 3997 3641 3322 
Q 3641 2881 3436 2590 
Q 3231 2300 2841 2188 
z
M 1259 4147 
L 1259 2491 
L 2053 2491 
Q 2509 2491 2742 2702 
Q 2975 2913 2975 3322 
Q 2975 3731 2742 3939 
Q 2509 4147 2053 4147 
L 1259 4147 
z
" transform="scale(0.015625)"/>
      <path id="DejaVuSans-7a" d="M 353 3500 
L 3084 3500 
L 3084 2975 
L 922 459 
L 3084 459 
L 3084 0 
L 275 0 
L 275 525 
L 2438 3041 
L 353 3041 
L 353 3500 
z
" transform="scale(0.015625)"/>
     </defs>
     <use xlink:href="#DejaVuSans-52"/>
     <use xlink:href="#DejaVuSans-65" x="64.982422"/>
     <use xlink:href="#DejaVuSans-61" x="126.505859"/>
     <use xlink:href="#DejaVuSans-6c" x="187.785156"/>
     <use xlink:href="#DejaVuSans-69" x="215.568359"/>
     <use xlink:href="#DejaVuSans-7a" x="243.351562"/>
     <use xlink:href="#DejaVuSans-61" x="295.841797"/>
     <use xlink:href="#DejaVuSans-74" x="357.121094"/>
     <use xlink:href="#DejaVuSans-69" x="396.330078"/>
     <use xlink:href="#DejaVuSans-6f" x="424.113281"/>
     <use xlink:href="#DejaVuSans-6e" x="485.294922"/>
    </g>
   </g>
   <g id="text_50">
    <!-- Relief -->
    <g transform="translate(412.355073 330.632791)scale(0.12 -0.12)">
     <use xlink:href="#DejaVuSans-52"/>
     <use xlink:href="#DejaVuSans-65" x="64.982422"/>
     <use xlink:href="#DejaVuSans-6c" x="126.505859"/>
     <use xlink:href="#DejaVuSans-69" x="154.289062"/>
     <use xlink:href="#DejaVuSans-65" x="182.072266"/>
     <use xlink:href="#DejaVuSans-66" x="243.595703"/>
    </g>
   </g>
   <g id="text_51">
    <!-- Remorse -->
    <g transform="translate(88.808772 187.049415)scale(0.12 -0.12)">
     <use xlink:href="#DejaVuSans-52"/>
     <use xlink:href="#DejaVuSans-65" x="64.982422"/>
     <use xlink:href="#DejaVuSans-6d" x="126.505859"/>
     <use xlink:href="#DejaVuSans-6f" x="223.917969"/>
     <use xlink:href="#DejaVuSans-72" x="285.099609"/>
     <use xlink:href="#DejaVuSans-73" x="326.212891"/>
     <use xlink:href="#DejaVuSans-65" x="378.3125"/>
    </g>
   </g>
   <g id="text_52">
    <!-- Sadness -->
    <g transform="translate(99.760922 326.679336)scale(0.12 -0.12)">
     <defs>
      <path id="DejaVuSans-53" d="M 3425 4513 
L 3425 3897 
Q 3066 4069 2747 4153 
Q 2428 4238 2131 4238 
Q 1616 4238 1336 4038 
Q 1056 3838 1056 3469 
Q 1056 3159 1242 3001 
Q 1428 2844 1947 2747 
L 2328 2669 
Q 3034 2534 3370 2195 
Q 3706 1856 3706 1288 
Q 3706 609 3251 259 
Q 2797 -91 1919 -91 
Q 1588 -91 1214 -16 
Q 841 59 441 206 
L 441 856 
Q 825 641 1194 531 
Q 1563 422 1919 422 
Q 2459 422 2753 634 
Q 3047 847 3047 1241 
Q 3047 1584 2836 1778 
Q 2625 1972 2144 2069 
L 1759 2144 
Q 1053 2284 737 2584 
Q 422 2884 422 3419 
Q 422 4038 858 4394 
Q 1294 4750 2059 4750 
Q 2388 4750 2728 4690 
Q 3069 4631 3425 4513 
z
" transform="scale(0.015625)"/>
     </defs>
     <use xlink:href="#DejaVuSans-53"/>
     <use xlink:href="#DejaVuSans-61" x="63.476562"/>
     <use xlink:href="#DejaVuSans-64" x="124.755859"/>
     <use xlink:href="#DejaVuSans-6e" x="188.232422"/>
     <use xlink:href="#DejaVuSans-65" x="251.611328"/>
     <use xlink:href="#DejaVuSans-73" x="313.134766"/>
     <use xlink:href="#DejaVuSans-73" x="365.234375"/>
    </g>
   </g>
   <g id="text_53">
    <!-- Surprise -->
    <g transform="translate(425.114923 94.611555)scale(0.12 -0.12)">
     <use xlink:href="#DejaVuSans-53"/>
     <use xlink:href="#DejaVuSans-75" x="63.476562"/>
     <use xlink:href="#DejaVuSans-72" x="126.855469"/>
     <use xlink:href="#DejaVuSans-70" x="167.96875"/>
     <use xlink:href="#DejaVuSans-72" x="231.445312"/>
     <use xlink:href="#DejaVuSans-69" x="272.558594"/>
     <use xlink:href="#DejaVuSans-73" x="300.341797"/>
     <use xlink:href="#DejaVuSans-65" x="352.441406"/>
    </g>
   </g>
   <g id="PathCollection_1">
    <defs>
     <path id="mcb3e791c59" d="M 0 3.535534 
C 0.937635 3.535534 1.836992 3.163008 2.5 2.5 
C 3.163008 1.836992 3.535534 0.937635 3.535534 0 
C 3.535534 -0.937635 3.163008 -1.836992 2.5 -2.5 
C 1.836992 -3.163008 0.937635 -3.535534 0 -3.535534 
C -0.937635 -3.535534 -1.836992 -3.163008 -2.5 -2.5 
C -3.163008 -1.836992 -3.535534 -0.937635 -3.535534 0 
C -3.535534 0.937635 -3.163008 1.836992 -2.5 2.5 
C -1.836992 3.163008 -0.937635 3.535534 0 3.535534 
z
" style="stroke: #2e8b57"/>
    </defs>
    <g clip-path="url(#p63505e9a6f)">
     <use xlink:href="#mcb3e791c59" x="460.742018" y="213.023202" style="fill: #2e8b57; stroke: #2e8b57"/>
     <use xlink:href="#mcb3e791c59" x="415.277291" y="261.650693" style="fill: #2e8b57; stroke: #2e8b57"/>
     <use xlink:href="#mcb3e791c59" x="427.533" y="269.162257" style="fill: #2e8b57; stroke: #2e8b57"/>
     <use xlink:href="#mcb3e791c59" x="444.9282" y="112.605457" style="fill: #2e8b57; stroke: #2e8b57"/>
     <use xlink:href="#mcb3e791c59" x="472.997727" y="238.325311" style="fill: #2e8b57; stroke: #2e8b57"/>
     <use xlink:href="#mcb3e791c59" x="452.835109" y="220.13942" style="fill: #2e8b57; stroke: #2e8b57"/>
     <use xlink:href="#mcb3e791c59" x="465.090818" y="117.744948" style="fill: #2e8b57; stroke: #2e8b57"/>
     <use xlink:href="#mcb3e791c59" x="328.696636" y="258.092584" style="fill: #2e8b57; stroke: #2e8b57"/>
     <use xlink:href="#mcb3e791c59" x="431.8818" y="173.093311" style="fill: #2e8b57; stroke: #2e8b57"/>
     <use xlink:href="#mcb3e791c59" x="431.8818" y="169.930548" style="fill: #2e8b57; stroke: #2e8b57"/>
     <use xlink:href="#mcb3e791c59" x="411.323836" y="333.603566" style="fill: #2e8b57; stroke: #2e8b57"/>
     <use xlink:href="#mcb3e791c59" x="365.859109" y="192.860584" style="fill: #2e8b57; stroke: #2e8b57"/>
    </g>
   </g>
   <g id="PathCollection_2">
    <defs>
     <path id="m286665de0b" d="M -3.535534 3.535534 
L 3.535534 -3.535534 
M -3.535534 -3.535534 
L 3.535534 3.535534 
" style="stroke: #dc143c; stroke-width: 1.5"/>
    </defs>
    <g clip-path="url(#p63505e9a6f)">
     <use xlink:href="#m286665de0b" x="143.674964" y="159.651566" style="fill: #dc143c; stroke: #dc143c; stroke-width: 1.5"/>
     <use xlink:href="#m286665de0b" x="111.256636" y="225.674257" style="fill: #dc143c; stroke: #dc143c; stroke-width: 1.5"/>
     <use xlink:href="#m286665de0b" x="143.674964" y="101.535784" style="fill: #dc143c; stroke: #dc143c; stroke-width: 1.5"/>
     <use xlink:href="#m286665de0b" x="98.210236" y="329.650111" style="fill: #dc143c; stroke: #dc143c; stroke-width: 1.5"/>
     <use xlink:href="#m286665de0b" x="123.117" y="249.79033" style="fill: #dc143c; stroke: #dc143c; stroke-width: 1.5"/>
     <use xlink:href="#m286665de0b" x="98.210236" y="137.116875" style="fill: #dc143c; stroke: #dc143c; stroke-width: 1.5"/>
     <use xlink:href="#m286665de0b" x="106.512491" y="111.41942" style="fill: #dc143c; stroke: #dc143c; stroke-width: 1.5"/>
     <use xlink:href="#m286665de0b" x="118.372855" y="177.442111" style="fill: #dc143c; stroke: #dc143c; stroke-width: 1.5"/>
     <use xlink:href="#m286665de0b" x="134.186673" y="172.697966" style="fill: #dc143c; stroke: #dc143c; stroke-width: 1.5"/>
     <use xlink:href="#m286665de0b" x="142.093582" y="81.768511" style="fill: #dc143c; stroke: #dc143c; stroke-width: 1.5"/>
     <use xlink:href="#m286665de0b" x="105.326455" y="190.488511" style="fill: #dc143c; stroke: #dc143c; stroke-width: 1.5"/>
    </g>
   </g>
   <g id="PathCollection_3">
    <defs>
     <path id="m3d4bd7c5c9" d="M 0 -3.535534 
L -3.535534 3.535534 
L 3.535534 3.535534 
z
" style="stroke: #b8860b"/>
    </defs>
    <g clip-path="url(#p63505e9a6f)">
     <use xlink:href="#m3d4bd7c5c9" x="263.069291" y="370.766039" style="fill: #b8860b; stroke: #b8860b"/>
     <use xlink:href="#m3d4bd7c5c9" x="374.161364" y="145.023784" style="fill: #b8860b; stroke: #b8860b"/>
     <use xlink:href="#m3d4bd7c5c9" x="178.465364" y="179.814184" style="fill: #b8860b; stroke: #b8860b"/>
     <use xlink:href="#m3d4bd7c5c9" x="296.673655" y="241.88342" style="fill: #b8860b; stroke: #b8860b"/>
     <use xlink:href="#m3d4bd7c5c9" x="423.579545" y="97.58233" style="fill: #b8860b; stroke: #b8860b"/>
    </g>
   </g>
  </g>
 </g>
 <defs>
  <clipPath id="p63505e9a6f">
   <rect x="57.885" y="28.396875" width="434.88" height="434.88"/>
  </clipPath>
 </defs>
</svg>
